<?xml version="1.0" encoding="iso-8859-1"?>
<!-- Generator: Adobe Illustrator 19.0.0, SVG Export Plug-In . SVG Version: 6.00 Build 0)  -->
<svg version="1.1" id="Capa_1" xmlns="http://www.w3.org/2000/svg" xmlns:xlink="http://www.w3.org/1999/xlink" x="0px" y="0px"
	 viewBox="0 0 512.002 512.002" style="enable-background:new 0 0 512.002 512.002;" xml:space="preserve">
<g>
	<g transform="translate(1 1)">
		<g>
			<path style="fill:#A4C2F7;" d="M386.497,180.506c-4.352,2.389-8.619,4.779-12.885,6.912c-5.763,2.913-12.799,0.769-15.957-4.864
				l-42.325-81.152l-79.531-35.925h16.213l93.184,35.925L386.497,180.506z"/>
			<path style="fill:#A4C2F7;" d="M455.02,203.716c-11.008,11.861-21.76,23.808-32.427,36.096
				c-11.008,12.715-22.073,25.429-33.195,38.144c-2.219,2.475-4.352,5.035-6.571,7.595c-8.558,11.76-12.2,26.39-10.155,40.789
				l1.451,10.325c2.105,14.587-1.67,29.413-10.496,41.216l-30.549,41.131c-2.051,2.656-3.824,5.515-5.291,8.533l-33.28,67.072
				c-2.372,4.808-7.268,7.852-12.629,7.851h-29.867c5.361,0.001,10.258-3.043,12.629-7.851l33.28-67.072
				c1.467-3.018,3.239-5.878,5.291-8.533l30.549-41.131c8.826-11.803,12.601-26.629,10.496-41.216l-1.451-10.325
				c-2.046-14.4,1.597-29.03,10.155-40.789c2.219-2.56,4.352-5.12,6.571-7.595c11.093-12.715,22.158-25.429,33.195-38.144
				c10.667-12.288,21.419-24.235,32.427-36.096c4.608-4.949,10.496-12.459,8.704-19.712c-0.877-3.715-2.945-7.041-5.888-9.472
				c6.802-4.202,14.956-5.637,22.784-4.011c6.394,1.9,11.32,7.02,12.971,13.483C465.516,191.258,459.628,198.767,455.02,203.716z"/>
		</g>
		<path style="fill:#E3E7F2;" d="M425.153,203.716c-11.008,11.861-21.76,23.808-32.427,36.096
			c-11.008,12.715-22.073,25.429-33.195,38.144c-2.219,2.475-4.352,5.035-6.571,7.595c-8.558,11.76-12.2,26.39-10.155,40.789
			l1.451,10.325c2.105,14.587-1.67,29.413-10.496,41.216l-30.549,41.131c-2.051,2.656-3.824,5.515-5.291,8.533l-33.28,67.072
			c-2.372,4.808-7.268,7.852-12.629,7.851h-1.195c-4.642-0.011-8.889-2.612-11.008-6.741c-2.662-5.473-1.604-12.027,2.645-16.384
			l3.072-2.987c3.485-3.515,4.876-8.597,3.669-13.397l-29.44-118.699c-0.171-0.427-0.256-0.939-0.427-1.365l-21.163-56.747
			c-1.535-4.063-2.316-8.372-2.304-12.715v-2.816c0.031-13.697-7.661-26.242-19.883-32.427l-2.133-1.024
			c-6.21-3.164-13.211-4.44-20.139-3.669l-14.592,1.621l-26.88,3.072c-5.121,0.586-10.308,0.032-15.189-1.621
			c-6.265-2.072-11.843-5.82-16.128-10.837l-26.368-30.891c-5.559-6.589-8.612-14.931-8.619-23.552v-27.221
			c-0.035-9.588,3.741-18.796,10.496-25.6l33.707-33.963c2.101-2.068,3.936-4.39,5.461-6.912l10.837-18.347
			c6.493-10.88,18.22-17.554,30.891-17.579h44.8c10.194,0.018,19.901,4.36,26.709,11.947c2.375,2.682,5.171,4.958,8.277,6.741
			l3.755-1.621l14.933,6.741l79.531,35.925l42.325,81.152c3.158,5.633,10.194,7.777,15.957,4.864
			c4.267-2.133,8.533-4.523,12.885-6.912l1.024,2.048c3.158,5.633,10.194,7.777,15.957,4.864
			c6.571-3.243,13.056-7.168,19.712-10.496c1.536-0.768,3.157-1.621,4.779-2.389c2.943,2.431,5.011,5.757,5.888,9.472
			C435.649,191.258,429.761,198.767,425.153,203.716z"/>
		<path style="fill:#FFFFFF;" d="M162.924,41.668c-12.67,0.025-24.398,6.698-30.891,17.579l-10.837,18.347
			c-1.526,2.522-3.36,4.844-5.461,6.912l-33.707,33.963c-6.755,6.804-10.531,16.012-10.496,25.6v27.221
			c0.007,8.621,3.059,16.963,8.619,23.552l26.368,30.891c4.285,5.018,9.863,8.766,16.128,10.837
			c0.341,0.085,0.768,0.256,1.109,0.341l-11.52,1.28c-5.121,0.586-10.308,0.032-15.189-1.621
			c-6.265-2.072-11.843-5.82-16.128-10.837l-26.368-30.891c-5.559-6.589-8.612-14.931-8.619-23.552v-27.221
			c-0.035-9.588,3.741-18.796,10.496-25.6l33.707-33.963c2.101-2.068,3.936-4.39,5.461-6.912l10.837-18.347
			c6.493-10.88,18.22-17.554,30.891-17.579H162.924z"/>
		<g>
			<path style="fill:#E3E7F2;" d="M425.153,203.716c-11.008,11.861-21.76,23.808-32.427,36.096
				c-11.008,12.715-22.073,25.429-33.195,38.144c-2.219,2.475-4.352,5.035-6.571,7.595c-8.558,11.76-12.2,26.39-10.155,40.789
				l1.451,10.325c2.105,14.587-1.67,29.413-10.496,41.216l-30.549,41.131c-2.051,2.656-3.824,5.515-5.291,8.533l-33.109,66.645
				v0.085l-0.171,0.341c-2.372,4.808-7.268,7.852-12.629,7.851h-1.195c-4.642-0.011-8.889-2.612-11.008-6.741
				c-2.662-5.473-1.604-12.027,2.645-16.384l3.072-2.987c3.485-3.515,4.876-8.597,3.669-13.397l-29.44-118.699
				c-0.171-0.427-0.256-0.939-0.427-1.365l-21.163-56.747c-1.535-4.063-2.316-8.372-2.304-12.715v-2.816
				c0.031-13.697-7.661-26.242-19.883-32.427l-2.133-1.024c-1.959-1.008-4.018-1.809-6.144-2.389
				c-4.531-1.365-9.291-1.8-13.995-1.28l-14.592,1.621l-15.36,1.792c-0.341-0.085-0.768-0.256-1.109-0.341
				c-6.265-2.072-11.843-5.82-16.128-10.837l-26.368-30.891c-5.559-6.589-8.612-14.931-8.619-23.552v-27.221
				c-0.035-9.588,3.741-18.796,10.496-25.6l33.707-33.963c2.101-2.068,3.936-4.39,5.461-6.912l10.837-18.347
				c6.493-10.88,18.22-17.554,30.891-17.579h19.2c10.194,0.018,19.901,4.36,26.709,11.947c2.375,2.682,5.171,4.958,8.277,6.741
				l3.755-1.621l14.933,6.741l79.531,35.925l42.325,81.152c3.158,5.633,10.194,7.777,15.957,4.864
				c3.157-1.621,6.315-3.328,9.557-5.035c1.109-0.683,2.219-1.28,3.328-1.877l1.024,2.048c3.2,5.581,10.188,7.712,15.957,4.864
				c3.157-1.536,6.4-3.328,9.557-5.035c3.328-1.877,6.741-3.755,10.155-5.461c1.536-0.768,3.157-1.621,4.779-2.389
				c2.943,2.431,5.011,5.757,5.888,9.472c0.097,0.275,0.155,0.562,0.171,0.853C433.943,192.133,430.705,199.014,425.153,203.716z"/>
			<path style="fill:#E3E7F2;" d="M293.399,92.868h34.133v128c0,9.426-7.641,17.067-17.067,17.067l0,0
				c-9.426,0-17.067-7.641-17.067-17.067V92.868z"/>
		</g>
		<circle style="fill:#7FACFA;" cx="310.465" cy="58.735" r="51.2"/>
		<ellipse style="fill:#A4C2F7;" cx="297.665" cy="58.735" rx="38.4" ry="51.2"/>
	</g>
	<g>
		<path style="fill:#428DFF;" d="M51.107,136.535c-3.004-0.005-5.784-1.588-7.321-4.169c-1.537-2.581-1.605-5.779-0.179-8.423
			c2.066-3.873,4.694-7.419,7.8-10.521l33.667-33.929c1.65-1.616,3.089-3.435,4.283-5.413l10.725-18.171
			c8.074-13.434,22.568-21.687,38.242-21.775h44.8c12.614,0.022,24.628,5.392,33.058,14.775c5.173,5.747,12.542,9.03,20.275,9.033
			h16.558c3.049,0,5.866,1.626,7.39,4.267s1.524,5.893,0,8.533c-1.524,2.64-4.341,4.267-7.39,4.267h-16.558
			c-12.577-0.004-24.561-5.344-32.975-14.691c-5.187-5.788-12.586-9.101-20.358-9.117h-44.8
			c-9.687-0.008-18.656,5.105-23.583,13.446l-10.792,18.283c-1.925,3.188-4.243,6.121-6.9,8.729L63.49,125.481
			c-1.94,1.939-3.58,4.156-4.867,6.579C57.13,134.819,54.244,136.536,51.107,136.535L51.107,136.535z"/>
		<path style="fill:#428DFF;" d="M282.882,512.002h-31.067c-7.871-0.018-15.069-4.441-18.642-11.454
			c-4.265-8.737-2.588-19.211,4.192-26.179l3.2-3.125c1.325-1.388,1.836-3.364,1.35-5.221l-29.383-118.475
			c-0.1-0.313-0.192-0.617-0.233-0.771l-21.125-56.646c-1.886-5.018-2.849-10.335-2.842-15.696v-2.817
			c0.062-10.485-5.825-20.098-15.192-24.808l-1.975-0.946c-4.784-2.46-10.185-3.462-15.533-2.883l-41.442,4.688
			c-14.68,1.605-29.201-4.165-38.775-15.408l-26.016-30.45c-3.061-3.585-2.635-8.973,0.95-12.033
			c3.585-3.061,8.973-2.635,12.033,0.95l26.025,30.462c5.885,6.96,14.851,10.529,23.908,9.517l41.433-4.687
			c8.584-0.943,17.256,0.634,24.958,4.538l1.958,0.937c15.211,7.576,24.8,23.132,24.733,40.125v2.817
			c-0.009,3.299,0.578,6.572,1.733,9.662l21.192,56.813c0.1,0.25,0.375,1.154,0.45,1.412c0.118,0.285,0.208,0.581,0.267,0.883
			l29.442,118.7c1.908,7.704-0.337,15.846-5.925,21.483l-3.142,3.067c-1.638,1.781-2.007,4.389-0.925,6.554
			c0.685,1.19,1.953,1.923,3.325,1.925h31.067c2.106-0.003,4.03-1.197,4.966-3.083l33.3-67.096c1.714-3.53,3.789-6.873,6.192-9.975
			l30.442-40.987c7.448-10.005,10.647-22.546,8.9-34.896l-1.458-10.371c-2.403-16.598,1.804-33.476,11.716-47.004l2.642-3.125
			c1.483-1.733,2.95-3.454,4.458-5.133c11.017-12.625,22.1-25.333,33.1-38.038c10.442-12.033,21.117-23.908,32.633-36.313
			c6.842-7.358,6.942-10.746,6.667-11.863c-0.944-3.583-3.715-6.399-7.283-7.4c-7.146-0.667-14.294,1.247-20.15,5.396l-0.967,0.492
			c-3.175,1.587-6.275,3.296-9.367,5c-3.475,1.908-6.933,3.813-10.417,5.529c-9.832,4.925-21.799,1.252-27.175-8.342l-42.45-81.379
			c-1.41-2.703-1.27-5.953,0.366-8.526c1.636-2.572,4.521-4.077,7.567-3.946c3.046,0.131,5.791,1.877,7.201,4.58l42.325,81.15
			c0.982,1.534,2.983,2.048,4.583,1.179c3.283-1.625,6.517-3.408,9.767-5.196c3.292-1.812,6.592-3.629,9.933-5.3l0.917-0.463
			c9.71-6.432,21.574-8.753,32.992-6.454c9.294,2.771,16.427,10.255,18.75,19.671c3.108,12.592-7.333,23.804-10.767,27.488
			c-11.375,12.258-21.917,23.996-32.233,35.875c-11.008,12.717-22.075,25.436-33.2,38.158c-1.492,1.667-2.875,3.287-4.267,4.917
			l-2.283,2.654c-6.948,9.883-9.866,22.044-8.158,34.004l1.45,10.337c2.375,16.811-1.972,33.882-12.1,47.508l-30.542,41.117
			c-1.734,2.229-3.231,4.632-4.467,7.171l-33.317,67.137C299.315,507.099,291.474,511.971,282.882,512.002L282.882,512.002z"/>
		<path style="fill:#428DFF;" d="M311.465,119.468c-24.16,0-45.941-14.554-55.186-36.874c-9.246-22.321-4.135-48.013,12.949-65.097
			s42.776-22.194,65.097-12.949c22.321,9.246,36.874,31.027,36.874,55.186C371.16,92.709,344.439,119.43,311.465,119.468z
			 M311.465,17.068c-23.564,0-42.667,19.103-42.667,42.667s19.103,42.667,42.667,42.667s42.667-19.103,42.667-42.667
			C354.104,36.182,335.018,17.096,311.465,17.068z"/>
		<path style="fill:#428DFF;" d="M294.399,68.268c-2.263,0.001-4.434-0.898-6.035-2.499c-1.6-1.6-2.499-3.771-2.499-6.035
			c0.015-14.132,11.468-25.585,25.6-25.6c4.713,0,8.533,3.821,8.533,8.533s-3.82,8.533-8.533,8.533
			c-4.711,0.005-8.529,3.822-8.533,8.533c0.001,2.263-0.898,4.434-2.499,6.035C298.833,67.37,296.662,68.269,294.399,68.268z"/>
		<path style="fill:#428DFF;" d="M311.465,247.468c-14.132-0.015-25.585-11.468-25.6-25.6V110.935
			c-0.001-2.263,0.898-4.434,2.499-6.035c1.6-1.6,3.771-2.499,6.035-2.499h34.133c2.263-0.001,4.434,0.898,6.035,2.499
			s2.499,3.771,2.499,6.035v110.933C337.05,236.001,325.597,247.453,311.465,247.468z M302.932,119.468v102.4
			c0,4.713,3.821,8.533,8.533,8.533s8.533-3.821,8.533-8.533v-102.4H302.932z"/>
		<circle style="fill:#428DFF;" cx="46.932" cy="162.135" r="8.533"/>
	</g>
</g>
<g>
</g>
<g>
</g>
<g>
</g>
<g>
</g>
<g>
</g>
<g>
</g>
<g>
</g>
<g>
</g>
<g>
</g>
<g>
</g>
<g>
</g>
<g>
</g>
<g>
</g>
<g>
</g>
<g>
</g>
</svg>
