<?xml version="1.0" encoding="iso-8859-1"?>
<!-- Generator: Adobe Illustrator 19.0.0, SVG Export Plug-In . SVG Version: 6.00 Build 0)  -->
<svg version="1.1" id="Capa_1" xmlns="http://www.w3.org/2000/svg" xmlns:xlink="http://www.w3.org/1999/xlink" x="0px" y="0px"
	 viewBox="0 0 512.046 512.046" style="enable-background:new 0 0 512.046 512.046;" xml:space="preserve">
<g transform="translate(-1)">
	<g transform="translate(1 1)">
		<g>
			<path style="fill:#A4C2F7;" d="M485.812,165.254c-3.175,2.542-4.105,6.978-2.219,10.581l10.497,20.565
				c1.595,3.257,1.004,7.161-1.483,9.8c-2.487,2.639-6.349,3.46-9.695,2.061l-13.825-5.547c0.648-2.101,0.433-4.373-0.597-6.315
				l-10.497-20.565c-1.887-3.604-0.957-8.039,2.219-10.581l14.508-11.605c2.448-1.979,3.618-5.139,3.049-8.236
				c-0.569-3.096-2.787-5.634-5.779-6.612l-52.907-16.811c-8.698-2.822-17.743-4.43-26.88-4.779l-56.235-2.304l-93.355-3.755
				l-41.898-1.707c-3.815-0.186-7.544-1.205-10.923-2.987l-3.84-2.048c-0.772-0.42-1.57-0.791-2.389-1.109l12.629-1.621
				c5.28-0.736,10.657,0.22,15.36,2.731l3.84,2.048c3.379,1.781,7.107,2.801,10.923,2.987l41.898,1.707l93.355,3.755l56.235,2.304
				c9.137,0.349,18.182,1.957,26.88,4.779l52.907,16.811c2.992,0.979,5.21,3.516,5.779,6.612s-0.6,6.256-3.049,8.236
				L485.812,165.254z"/>
			<path style="fill:#A4C2F7;" d="M352.266,475.27l-11.861-8.192c0.053-0.315,0.024-0.638-0.085-0.939l-2.816-10.923
				c-0.169-0.698-0.255-1.415-0.256-2.133v-16.128c0.018-2.31,0.955-4.518,2.605-6.135c1.649-1.617,3.875-2.511,6.185-2.484h6.656
				c1.418,0.007,2.817,0.327,4.096,0.939l2.133,1.109c1.928,0.958,4.126,1.229,6.229,0.768c-1.483,1.567-2.308,3.645-2.304,5.803
				v16.128c0.001,0.719,0.087,1.435,0.256,2.133l2.816,10.923c0.812,3.553-0.654,7.239-3.683,9.266
				C359.206,477.432,355.24,477.378,352.266,475.27z"/>
			<path style="fill:#A4C2F7;" d="M405.514,278.406c-4.179,7.719-5.877,16.539-4.864,25.259l5.803,48.896
				c0.392,3.995-2.008,7.736-5.803,9.045l-28.331,10.069c-2.882,1.013-5.016,3.472-5.612,6.469c-0.596,2.996,0.435,6.085,2.71,8.123
				l25.173,22.187c1.804,1.637,2.828,3.964,2.817,6.4v7.851c-0.049,3.055-1.677,5.867-4.302,7.432
				c-2.625,1.565-5.873,1.658-8.584,0.248l-2.133-1.109c-1.279-0.611-2.678-0.932-4.096-0.939h-6.656
				c-0.747-0.004-1.492,0.082-2.219,0.256c1.523-1.583,2.379-3.691,2.389-5.888v-7.851c0.011-2.436-1.013-4.763-2.817-6.4
				l-25.173-22.187c-2.276-2.038-3.306-5.127-2.71-8.123c0.596-2.997,2.729-5.456,5.612-6.469l28.331-10.069
				c3.794-1.309,6.195-5.051,5.803-9.045l-5.803-48.896c-1.013-8.719,0.685-17.539,4.864-25.259l14.25-26.539
				c7.274-13.556,6.721-29.972-1.45-43.008l-11.008-17.579c-1.629-2.689-1.672-6.05-0.112-8.78s4.477-4.399,7.621-4.361h17.237
				c1.644,0.011,3.28,0.241,4.864,0.683c-2.318,0.976-4.095,2.914-4.866,5.308c-0.771,2.394-0.458,5.005,0.855,7.15l11.008,17.579
				c8.171,13.036,8.724,29.452,1.45,43.008L405.514,278.406z"/>
		</g>
		<g>
			<path style="fill:#FFFFFF;" d="M188.938,106.033l-16.299,2.133c-4.35,0.491-7.648,4.155-7.679,8.533v9.728
				c-0.018,2.31-0.955,4.517-2.605,6.135c-1.649,1.617-3.875,2.511-6.185,2.484h-10.581c-3.077,0.015-5.937,1.589-7.596,4.181
				l-3.071,4.949c-6.735,10.589-8.453,23.611-4.694,35.584l7.935,25.088c1.331,4.469-1.123,9.189-5.546,10.667l-7.425,2.56
				c-2.301,0.774-4.159,2.496-5.106,4.732c-0.946,2.235-0.889,4.769,0.158,6.959l22.783,48.299c1.217,2.699,0.969,5.832-0.657,8.305
				s-4.404,3.944-7.364,3.897h-15.702c-1.743,0.015-3.446-0.523-4.865-1.536c3.505-2.321,4.777-6.863,2.987-10.667l-22.783-48.299
				c-1.046-2.19-1.104-4.724-0.158-6.959c0.946-2.235,2.805-3.958,5.106-4.732l7.425-2.56c4.423-1.478,6.877-6.197,5.546-10.667
				l-7.935-25.088c-3.759-11.973-2.041-24.995,4.694-35.584l3.071-4.949c1.658-2.592,4.518-4.167,7.596-4.181h10.581
				c2.31,0.027,4.535-0.867,6.185-2.484c1.649-1.617,2.587-3.825,2.605-6.135V116.7c0.031-4.378,3.329-8.042,7.679-8.533
				l36.523-4.864c0.819,0.318,1.617,0.689,2.389,1.109L188.938,106.033z"/>
			<path style="fill:#FFFFFF;" d="M105.567,414.257l-16.043,3.755c-3.657,0.87-7.47-0.628-9.557-3.755
				c-0.171-0.341-0.426-0.768-0.597-1.195l-36.694-77.909c-0.507-1.157-0.769-2.406-0.769-3.669v-17.749
				c-0.008-3.702-2.325-7.007-5.802-8.277l-16.555-5.803c-1.31-0.523-2.501-1.307-3.499-2.304l-5.205-5.547
				c-2.022-2.18-2.785-5.243-2.024-8.117c0.762-2.874,2.943-5.157,5.778-6.049l25.003-7.595l14.08-4.267
				c2.791-0.834,5.814-0.262,8.106,1.536l3.413,2.731l-25.002,7.595c-2.836,0.892-5.017,3.175-5.778,6.049
				c-0.762,2.874,0.002,5.937,2.024,8.117l5.205,5.547c0.998,0.997,2.188,1.781,3.499,2.304l16.555,5.803
				c3.477,1.271,5.794,4.575,5.802,8.277v17.749c-0.001,1.263,0.261,2.513,0.769,3.669l36.694,77.909
				C105.141,413.489,105.396,413.916,105.567,414.257z"/>
		</g>
		<g>
			<path style="fill:#E3E7F2;" d="M460.212,165.254c-3.175,2.542-4.105,6.978-2.219,10.581l1.196,2.389l9.301,18.176
				c1.031,1.942,1.245,4.214,0.597,6.315l-14.848-5.973c-2.051-0.86-3.719-2.438-4.693-4.437l-2.048-4.352
				c-2.081-4.4-5.924-7.716-10.581-9.131c-1.584-0.442-3.219-0.671-4.864-0.683h-17.238c-1.2-0.005-2.389,0.227-3.499,0.683
				c-1.584-0.442-3.219-0.671-4.864-0.683h-17.238c-3.144-0.038-6.061,1.631-7.621,4.361c-1.56,2.73-1.517,6.091,0.112,8.78
				l11.008,17.579c8.171,13.036,8.724,29.452,1.45,43.008l-14.25,26.538c-4.179,7.719-5.877,16.539-4.864,25.259l5.803,48.896
				c0.392,3.995-2.008,7.736-5.803,9.045l-28.331,10.069c-2.882,1.013-5.016,3.472-5.612,6.469c-0.596,2.996,0.435,6.085,2.71,8.123
				l25.173,22.187c1.804,1.637,2.828,3.964,2.817,6.4v7.851c-0.01,2.197-0.866,4.305-2.389,5.888c-1.2,0.331-2.328,0.88-3.328,1.621
				l-0.171,0.171c-0.277,0.234-0.534,0.491-0.768,0.768c-2.103,0.461-4.301,0.19-6.229-0.768l-2.133-1.109
				c-1.091-0.532-2.285-0.823-3.499-0.853c-0.191-0.07-0.394-0.099-0.597-0.085h-6.656c-2.31-0.027-4.535,0.867-6.185,2.484
				c-1.649,1.617-2.587,3.825-2.605,6.135v16.128c0.001,0.719,0.087,1.435,0.256,2.133l2.816,10.923
				c0.109,0.3,0.139,0.624,0.085,0.939l-3.328-2.304c-1.865-1.241-3.156-3.177-3.583-5.376l-6.999-37.205
				c-0.267-1.629-1.01-3.143-2.133-4.352l-13.569-14.421c-0.642-0.64-1.163-1.392-1.535-2.219l-7.168-15.189l-2.901-6.315
				c-1.286-2.649-3.786-4.501-6.695-4.96c-2.908-0.459-5.858,0.533-7.897,2.656l-8.107,8.619l-22.528,23.979
				c-0.588,0.683-1.103,1.427-1.535,2.219l-1.025,2.219v0.085l-5.46,11.52c-1.529,3.248-4.863,5.256-8.448,5.088
				c-3.586-0.168-6.717-2.479-7.936-5.856l-3.755-10.752l-12.203-34.645c-0.74-2.139-2.308-3.892-4.352-4.864l-72.704-35.669
				l-12.885-6.315c-2.492-1.276-5.442-1.294-7.95-0.049c-2.508,1.245-4.276,3.607-4.765,6.364c-0.154,1.082-0.097,2.183,0.171,3.243
				l3.412,14.507c0.334,1.463,1.039,2.815,2.048,3.925l14.678,15.531l14.251,15.104c2.072,2.23,2.807,5.391,1.929,8.306
				c-0.878,2.915-3.236,5.145-6.195,5.859l-35.669,8.448c-0.171-0.341-0.426-0.768-0.597-1.195l-36.694-77.909
				c-0.507-1.157-0.769-2.406-0.769-3.669v-17.749c-0.008-3.702-2.325-7.007-5.802-8.277l-16.555-5.803
				c-1.31-0.523-2.501-1.307-3.499-2.304l-5.205-5.547c-2.022-2.18-2.785-5.243-2.024-8.117c0.762-2.874,2.943-5.157,5.778-6.049
				l25.003-7.595l22.955,18.261c0.193,0.19,0.426,0.336,0.681,0.427c1.418,1.013,3.121,1.551,4.865,1.536h15.702
				c1.791-0.012,3.54-0.546,5.033-1.536c1.418,1.013,3.121,1.551,4.865,1.536h15.702c2.96,0.047,5.738-1.424,7.363-3.897
				s1.874-5.607,0.657-8.305l-22.783-48.299c-1.046-2.19-1.104-4.724-0.158-6.959c0.946-2.235,2.805-3.958,5.106-4.732l7.425-2.56
				c4.423-1.478,6.877-6.197,5.546-10.667l-7.935-25.088c-3.759-11.973-2.041-24.995,4.694-35.584l3.071-4.949
				c1.658-2.592,4.518-4.167,7.596-4.181h10.581c2.31,0.027,4.535-0.867,6.185-2.484c1.649-1.617,2.587-3.825,2.605-6.135V116.7
				c0.031-4.378,3.329-8.042,7.679-8.533l16.299-2.133l0.853,0.427c3.379,1.781,7.107,2.801,10.923,2.987l41.898,1.707l93.356,3.755
				l56.235,2.304c9.137,0.349,18.182,1.957,26.88,4.779l52.907,16.811c2.992,0.979,5.21,3.516,5.779,6.612s-0.6,6.256-3.049,8.236
				L460.212,165.254z"/>
			<path style="fill:#E3E7F2;" d="M369.418,428.678c-1.159,1.195-2.642,2.025-4.267,2.389
				C366.31,429.872,367.793,429.042,369.418,428.678L369.418,428.678z"/>
			<path style="fill:#E3E7F2;" d="M298.676,118.492h34.133v128c0,9.426-7.641,17.067-17.067,17.067l0,0
				c-9.426,0-17.067-7.641-17.067-17.067V118.492z"/>
		</g>
		<circle style="fill:#7FACFA;" cx="315.743" cy="84.358" r="51.2"/>
		<ellipse style="fill:#A4C2F7;" cx="302.943" cy="84.358" rx="38.4" ry="51.2"/>
	</g>
	<g>
		<path style="fill:#428DFF;" d="M316.743,145.092c-32.99,0-59.733-26.744-59.733-59.733s26.743-59.733,59.733-59.733
			s59.733,26.744,59.733,59.733C376.438,118.332,349.717,145.053,316.743,145.092z M316.743,42.692
			c-23.564,0-42.667,19.103-42.667,42.667s19.103,42.667,42.667,42.667c23.564,0,42.667-19.103,42.667-42.667
			C359.382,61.806,340.296,42.719,316.743,42.692z"/>
		<path style="fill:#428DFF;" d="M299.676,93.892c-2.263,0.001-4.434-0.898-6.035-2.499c-1.6-1.6-2.499-3.771-2.499-6.035
			c0.015-14.132,11.468-25.585,25.6-25.6c4.713,0,8.533,3.821,8.533,8.533s-3.821,8.533-8.533,8.533
			c-4.711,0.005-8.529,3.822-8.533,8.533c0.001,2.263-0.898,4.434-2.499,6.035C304.111,92.993,301.94,93.892,299.676,93.892z"/>
		<path style="fill:#428DFF;" d="M316.743,273.092c-14.132-0.015-25.585-11.468-25.6-25.6V136.558
			c-0.001-2.263,0.898-4.434,2.499-6.035c1.6-1.6,3.771-2.499,6.035-2.499h34.133c2.263-0.001,4.434,0.898,6.035,2.499
			c1.6,1.6,2.499,3.771,2.499,6.035v110.933C342.328,261.624,330.875,273.076,316.743,273.092z M308.21,145.092v102.4
			c0,4.713,3.821,8.533,8.533,8.533c4.713,0,8.533-3.821,8.533-8.533v-102.4H308.21z"/>
		<path style="fill:#428DFF;" d="M47.351,352.538c-3.318,0.005-6.338-1.915-7.742-4.921l-3.667-7.85
			c-1.02-2.293-1.554-4.773-1.567-7.283v-17.75l-16.65-6.025c-2.514-0.956-4.8-2.43-6.708-4.325l-5.392-5.738
			c-4.036-4.324-5.567-10.419-4.054-16.137c1.513-5.718,5.857-10.258,11.503-12.021l39.134-11.879
			c5.44-1.642,11.339-0.537,15.817,2.963l26.45,21.058l15.933,0.104l-22.483-48.325c-2.071-4.3-2.217-9.278-0.4-13.692
			c1.874-4.544,5.601-8.071,10.242-9.692l7.467-2.575l-7.742-25.113c-4.542-14.379-2.482-30.031,5.625-42.746l3.025-4.867
			c3.23-5.082,8.82-8.176,14.842-8.212h10.583l0.258-9.812c-0.004-8.668,6.476-15.968,15.083-16.992l49.167-6.488
			c7.034-1.001,14.203,0.277,20.458,3.646l3.867,2.058c2.26,1.187,4.751,1.868,7.3,1.996l41.858,1.708
			c2.261,0.092,4.392,1.078,5.925,2.742c1.533,1.664,2.342,3.868,2.25,6.129c-0.291,4.663-4.204,8.268-8.875,8.179l-41.9-1.708
			c-5.075-0.242-10.036-1.593-14.533-3.958l-3.883-2.067c-3.101-1.653-6.643-2.29-10.125-1.821l-49.258,6.5l-0.267,9.804
			c-0.06,9.515-7.81,17.187-17.325,17.15h-10.584l-3.417,5.1c-5.433,8.476-6.825,18.926-3.8,28.529l7.933,25.067
			c2.714,8.845-2.065,18.251-10.808,21.275l-7.517,2.592l22.767,48.283c2.48,5.283,2.074,11.469-1.075,16.383
			c-3.192,5.001-8.725,8.018-14.658,7.992h-15.7c-4.016-0.007-7.907-1.4-11.017-3.942l-26.217-20.871l-39.4,11.817l5.192,5.704
			l16.667,5.896c6.879,2.493,11.473,9.012,11.508,16.329v17.75l3.633,7.908c1.234,2.642,1.034,5.731-0.531,8.192
			S50.267,352.535,47.351,352.538L47.351,352.538z"/>
		<path style="fill:#428DFF;" d="M358.343,486.421c-3.554-0.007-7.02-1.102-9.933-3.137l-15.183-10.487
			c-3.708-2.511-6.268-6.391-7.117-10.788l-7-37.237l-13.533-14.504c-1.309-1.335-2.365-2.896-3.117-4.608l-10-21.342l-31.25,32.487
			l0.009-0.009c0.017,0-0.15,0.225-0.325,0.55l-6.225,13.312c-2.998,6.379-9.546,10.321-16.586,9.987
			c-7.04-0.335-13.185-4.881-15.564-11.516l-15.967-45.433l-85.65-42.013l2.933,14.446l28.875,30.654
			c4.161,4.445,5.646,10.768,3.899,16.601s-6.463,10.298-12.383,11.724l-51.742,12.208c-8.069,1.921-16.374-2.115-19.85-9.646
			l-3.9-8.233c-1.306-2.754-1.043-5.995,0.69-8.503s4.671-3.901,7.708-3.654c3.038,0.246,5.713,2.095,7.019,4.848l3.925,8.279
			l52.2-11.904l-28.9-30.638c-2.041-2.204-3.474-4.9-4.158-7.825l-3.417-14.512c-1.553-6.415,0.794-13.146,6-17.204
			c5.302-4.262,12.611-5.02,18.675-1.937l85.525,41.953c4.04,1.944,7.144,5.409,8.633,9.637l15.975,45.458l7.092-13.854
			c0.774-1.495,1.716-2.897,2.808-4.179l30.867-32.854c3.963-4.171,9.721-6.132,15.406-5.249c5.685,0.884,10.576,4.501,13.086,9.678
			l10.117,21.6l13.591,14.416c2.299,2.469,3.813,5.565,4.35,8.896l6.95,36.929l15.242,10.429l-2.283-10.904
			c-0.342-1.395-0.518-2.826-0.525-4.262v-16.129c0.06-9.515,7.81-17.187,17.325-17.15h6.658c2.666,0.007,5.298,0.601,7.708,1.742
			l2.45,1.267l0.425-7.958l-25.1-22.188c-4.554-4.049-6.623-10.208-5.435-16.185c1.188-5.977,5.453-10.877,11.21-12.878
			l28.242-10.038l-5.617-48.896c-1.231-10.459,0.801-21.044,5.817-30.304l14.258-26.537c5.843-10.841,5.401-23.989-1.158-34.413
			l-11.016-17.613c-3.325-5.225-3.501-11.856-0.458-17.25c3.063-5.524,8.883-8.95,15.2-8.946h17.233
			c9.912,0.028,18.925,5.75,23.167,14.708l2.05,4.363l28.825,11.667l-10.1-20.629c-3.734-7.241-1.828-16.111,4.55-21.179
			l14.442-11.55l-52.883-16.863c-7.964-2.588-16.248-4.063-24.617-4.383l-56.267-2.308c-3.052-0.117-5.809-1.855-7.228-4.559
			c-1.42-2.704-1.286-5.961,0.35-8.539c1.637-2.578,4.527-4.086,7.578-3.952l56.233,2.304c9.911,0.379,19.723,2.124,29.158,5.183
			l52.858,16.796c5.989,1.927,10.439,6.984,11.589,13.17s-1.185,12.504-6.081,16.455l-14.533,11.625l10.55,20.604
			c3.275,6.292,2.255,13.961-2.55,19.179c-4.872,5.434-12.627,7.23-19.392,4.492l-28.692-11.533
			c-4.021-1.671-7.295-4.751-9.208-8.663l-2.075-4.417c-1.395-3.004-4.413-4.92-7.725-4.904h-17.233l10.725,17.658
			c9.824,15.624,10.489,35.324,1.742,51.575l-14.258,26.537c-3.353,6.177-4.716,13.24-3.9,20.221l5.8,48.892
			c0.874,7.954-3.861,15.457-11.417,18.092l-28.334,10.067l25.058,22.338c3.631,3.265,5.706,7.917,5.708,12.8v7.85
			c0.011,5.968-3.099,11.507-8.2,14.604c-5.184,3.195-11.659,3.455-17.084,0.687l-2.208-1.15l-6.817,0.025l-0.258,16.213
			l2.808,10.929c1.79,6.924-0.957,14.226-6.867,18.254C365.393,485.313,361.912,486.414,358.343,486.421z"/>
		<circle style="fill:#428DFF;" cx="60.743" cy="375.492" r="8.533"/>
	</g>
</g>
<g>
</g>
<g>
</g>
<g>
</g>
<g>
</g>
<g>
</g>
<g>
</g>
<g>
</g>
<g>
</g>
<g>
</g>
<g>
</g>
<g>
</g>
<g>
</g>
<g>
</g>
<g>
</g>
<g>
</g>
</svg>
