<?xml version="1.0" encoding="iso-8859-1"?>
<!-- Generator: Adobe Illustrator 19.0.0, SVG Export Plug-In . SVG Version: 6.00 Build 0)  -->
<svg version="1.1" id="Capa_1" xmlns="http://www.w3.org/2000/svg" xmlns:xlink="http://www.w3.org/1999/xlink" x="0px" y="0px"
	 viewBox="0 0 512.055 512.055" style="enable-background:new 0 0 512.055 512.055;" xml:space="preserve">
<g transform="translate(-1)">
	<g transform="translate(1 1)">
		<path style="fill:#A4C2F7;" d="M493.712,333.024l-88.491,109.483c-4.909,6.032-11.047,10.948-18.005,14.421l-36.608,18.091
			c-4.27,2.135-9.218,2.473-13.739,0.939l-8.277-2.731l33.024-16.299c6.958-3.473,13.097-8.389,18.005-14.421l88.491-109.483
			c7.545-9.314,10.966-21.302,9.472-33.195l-5.205-41.301c-0.922-7.337-3.681-14.323-8.021-20.309l-28.245-39.168
			c-6.544-9.002-10.069-19.846-10.069-30.976V95.883c0.005-5.539-1.281-11.002-3.755-15.957l-6.485-12.715l2.816-10.411
			c1.017-3.57,4.115-6.154,7.81-6.512c3.695-0.358,7.232,1.582,8.915,4.891l12.544,24.747c2.474,4.955,3.759,10.419,3.755,15.957
			v72.192c0,11.13,3.525,21.974,10.069,30.976l28.245,39.168c4.341,5.987,7.1,12.972,8.021,20.309l5.205,41.301
			C504.678,311.722,501.257,323.71,493.712,333.024L493.712,333.024z"/>
		<path style="fill:#FFFFFF;" d="M304.272,91.616l-24.235,3.413c-5.792,0.837-10.818,4.432-13.483,9.643l-5.888,11.691
			c-5.001,9.84-14.255,16.827-25.088,18.944l-16.981,3.328c-6.946,1.348-13.334,4.734-18.347,9.728l-36.608,36.181
			c-3.054,2.972-6.399,5.631-9.984,7.936l-34.133,14.421l-3.328,1.195c-20.959,7.702-36.194,26.03-39.936,48.043l-11.349,67.243
			c-0.449,2.612-1.283,5.143-2.475,7.509l-25.429,50.261c-5.209,10.284-3.136,22.759,5.12,30.805v0.085
			c1.891,1.907,4.082,3.493,6.485,4.693l-1.963,0.853c-7.6,3.319-16.296,3.005-23.637-0.853c-2.403-1.2-4.594-2.786-6.485-4.693
			v-0.085c-8.256-8.046-10.329-20.521-5.12-30.805l25.429-50.261c1.192-2.367,2.026-4.897,2.475-7.509l11.349-67.243
			c3.742-22.013,18.977-40.341,39.936-48.043l3.328-1.195l34.133-14.421c3.585-2.305,6.93-4.964,9.984-7.936l36.608-36.181
			c5.013-4.994,11.4-8.38,18.347-9.728l16.981-3.328c10.833-2.117,20.087-9.105,25.088-18.944l5.888-11.691
			c2.664-5.211,7.691-8.805,13.483-9.643l24.235-3.413l14.507-2.048C297,89.058,300.884,89.775,304.272,91.616L304.272,91.616z"/>
		<g>
			<path style="fill:#E3E7F2;" d="M468.112,333.024l-88.491,109.483c-4.909,6.032-11.047,10.948-18.005,14.421l-22.784,11.264
				l-10.24,5.035l-28.331-9.301c-6.267-2.066-10.89-7.411-12.032-13.909l-3.925-23.808c-1.039-6.146-5.263-11.279-11.093-13.483
				c-3.496-1.414-7.35-1.683-11.008-0.768l-1.877,0.427c-4.029,0.991-8.276,0.569-12.032-1.195c-4.082-1.904-7.285-5.291-8.96-9.472
				l-6.827-16.896c-1.497-3.738-4.24-6.843-7.765-8.789c-3.534-2.038-7.664-2.792-11.691-2.133l-13.909,2.133l-82.773,12.544
				c-3.917,0.587-7.736,1.706-11.349,3.328l-56.405,24.832c-2.403-1.2-4.594-2.786-6.485-4.693v-0.085
				c-8.256-8.046-10.329-20.521-5.12-30.805l25.429-50.261c1.192-2.367,2.026-4.897,2.475-7.509l11.349-67.243
				c3.742-22.013,18.977-40.341,39.936-48.043l3.328-1.195l34.133-14.421c3.585-2.305,6.93-4.964,9.984-7.936l36.608-36.181
				c5.013-4.994,11.4-8.38,18.347-9.728l16.981-3.328c10.833-2.117,20.087-9.105,25.088-18.944l5.888-11.691
				c2.664-5.211,7.691-8.805,13.483-9.643l24.235-3.413c3.994,2.078,7.023,5.628,8.448,9.899l2.475,7.339
				c1.189,3.443,3.39,6.447,6.315,8.619l43.861,32.512l2.133,1.621c7.139,5.365,17.134,4.675,23.467-1.621
				c2.302-2.168,3.931-4.953,4.693-8.021l20.139-74.752l6.485,12.715c2.474,4.955,3.759,10.419,3.755,15.957v72.192
				c0,11.13,3.525,21.974,10.069,30.976l28.245,39.168c4.341,5.987,7.1,12.972,8.021,20.309l5.205,41.301
				C479.078,311.722,475.657,323.71,468.112,333.024z"/>
			<path style="fill:#E3E7F2;" d="M93.925,131.296h34.133v110.933c0,9.426-7.641,17.067-17.067,17.067l0,0
				c-9.426,0-17.067-7.641-17.067-17.067V131.296z"/>
		</g>
		<circle style="fill:#7FACFA;" cx="110.992" cy="84.363" r="51.2"/>
		<ellipse style="fill:#A4C2F7;" cx="98.192" cy="84.363" rx="38.4" ry="51.2"/>
	</g>
	<g>
		<circle style="fill:#428DFF;" cx="46.285" cy="289.309" r="8.533"/>
		<path style="fill:#428DFF;" d="M111.992,145.096c-32.99,0-59.733-26.744-59.733-59.733s26.744-59.733,59.733-59.733
			s59.733,26.744,59.733,59.733C171.688,118.337,144.966,145.059,111.992,145.096L111.992,145.096z M111.992,42.696
			c-23.564,0-42.667,19.103-42.667,42.667s19.103,42.667,42.667,42.667s42.667-19.103,42.667-42.667
			C154.631,61.81,135.544,42.724,111.992,42.696z"/>
		<path style="fill:#428DFF;" d="M94.925,93.896c-4.713,0-8.533-3.821-8.533-8.533c0.015-14.132,11.468-25.585,25.6-25.6
			c4.713,0,8.533,3.821,8.533,8.533s-3.821,8.533-8.533,8.533c-4.71,0.006-8.527,3.823-8.533,8.533
			C103.458,90.076,99.638,93.896,94.925,93.896z"/>
		<path style="fill:#428DFF;" d="M111.992,273.096c-14.132-0.015-25.585-11.468-25.6-25.6V136.563c0-4.713,3.821-8.533,8.533-8.533
			h34.133c4.713,0,8.533,3.821,8.533,8.533v110.933C137.576,261.628,126.124,273.081,111.992,273.096z M103.458,145.096v102.4
			c0,4.713,3.821,8.533,8.533,8.533c4.713,0,8.533-3.82,8.533-8.533v-102.4H103.458z"/>
		<path style="fill:#428DFF;" d="M52.012,263.709c-2.56,0-4.986-1.148-6.608-3.13s-2.269-4.585-1.764-7.095
			c4.839-24.11,21.886-43.96,44.988-52.388l3.412-1.225c2.871-1.041,6.08-0.468,8.413,1.503c2.333,1.971,3.435,5.038,2.888,8.043
			s-2.657,5.488-5.535,6.512l-3.329,1.196c-17.514,6.405-30.436,21.459-34.112,39.742C59.563,260.844,56.07,263.704,52.012,263.709
			L52.012,263.709z"/>
		<path style="fill:#428DFF;" d="M343.596,486.425c-2.879,0.003-5.739-0.466-8.467-1.388l-36.533-12.004
			c-9.288-3.026-16.134-10.95-17.779-20.579l-3.933-23.858c-0.451-2.528-1.939-4.752-4.104-6.133
			c-2.211-1.448-4.93-1.894-7.488-1.229l-2.083,0.475c-12.755,3.023-25.815-3.682-30.792-15.809l-6.821-16.883
			c-1.698-4.024-5.924-6.37-10.238-5.683l-96.713,14.679c-3.146,0.47-6.213,1.367-9.117,2.667L51.087,426.4
			c-13.432,5.929-29.123,3.037-39.558-7.292c-0.259-0.257-0.503-0.53-0.729-0.817c-10.347-10.682-12.758-26.761-6-40.008
			l25.425-50.246c0.802-1.598,1.365-3.305,1.671-5.067l0.192-1.058c0.845-4.637,5.288-7.711,9.925-6.867
			c4.637,0.845,7.711,5.288,6.867,9.925l-0.171,0.938c-0.59,3.408-1.681,6.711-3.237,9.8l-25.45,50.296
			c-3.542,6.963-2.131,15.422,3.479,20.858c0.213,0.208,0.417,0.429,0.608,0.658c5.489,4.962,13.383,6.23,20.15,3.237l58.321-25.667
			c4.3-1.924,8.841-3.253,13.5-3.95l96.692-14.679c12.163-1.97,24.066,4.754,28.658,16.188l6.817,16.87
			c1.806,4.325,6.493,6.691,11.046,5.575l2.029-0.462c7.114-1.749,14.634-0.472,20.771,3.527
			c6.137,3.999,10.343,10.363,11.616,17.577l3.942,23.892c0.623,3.362,3.028,6.117,6.275,7.188l36.612,12.033
			c2.384,0.815,4.994,0.647,7.254-0.467l36.646-18.104c5.865-2.937,11.041-7.085,15.183-12.171l88.454-109.446
			c6.074-7.504,8.833-17.157,7.642-26.737l-5.208-41.329c-0.742-5.908-2.96-11.534-6.45-16.358l-28.275-39.196
			c-7.611-10.446-11.7-23.042-11.675-35.967V96.883c-0.001-4.218-0.98-8.378-2.859-12.154l-12.517-24.692l-9.116-2.237l8.242,2.221
			L404.9,145.184c-2.249,8.423-8.531,15.182-16.767,18.042c-8.353,2.92-17.609,1.509-24.713-3.767l-45.996-34.133
			c-4.298-3.189-7.533-7.601-9.283-12.658l-2.509-7.429c-1.501-4.264-5.81-6.869-10.283-6.217l-38.721,5.458
			c-3.034,0.447-5.666,2.33-7.067,5.058l-5.875,11.663c-6.214,12.167-17.658,20.818-31.058,23.479l-16.996,3.329
			c-5.283,1.015-10.141,3.588-13.949,7.387l-36.642,36.221c-3.479,3.384-7.286,6.413-11.366,9.042
			c-2.565,1.664-5.824,1.829-8.545,0.433c-2.72-1.397-4.485-4.142-4.627-7.196c-0.142-3.054,1.36-5.952,3.939-7.595
			c3.107-1.997,6.006-4.3,8.654-6.875l36.554-36.133c6.201-6.184,14.109-10.374,22.708-12.033l16.983-3.325
			c8.238-1.627,15.278-6.938,19.104-14.413l5.887-11.687c3.921-7.687,11.324-12.997,19.863-14.246l38.792-5.471
			c12.6-1.784,24.693,5.629,28.821,17.667l2.475,7.346c0.624,1.796,1.777,3.36,3.308,4.488l45.996,34.133
			c2.552,1.926,5.901,2.44,8.913,1.367c2.914-0.985,5.138-3.37,5.917-6.346l22.959-85.191c1.937-6.977,7.957-12.05,15.161-12.776
			c7.204-0.726,14.116,3.043,17.406,9.493L456.5,77.067c3.066,6.157,4.666,12.939,4.675,19.817v72.192
			c-0.017,9.331,2.94,18.425,8.442,25.962l28.267,39.187c5.169,7.146,8.456,15.479,9.558,24.229l5.208,41.308
			c1.769,14.195-2.31,28.499-11.3,39.625l-88.492,109.483c-5.677,6.98-12.776,12.671-20.825,16.692l-36.645,18.104
			C351.724,485.487,347.687,486.431,343.596,486.425z"/>
	</g>
</g>
<g>
</g>
<g>
</g>
<g>
</g>
<g>
</g>
<g>
</g>
<g>
</g>
<g>
</g>
<g>
</g>
<g>
</g>
<g>
</g>
<g>
</g>
<g>
</g>
<g>
</g>
<g>
</g>
<g>
</g>
</svg>
