<?xml version="1.0" encoding="iso-8859-1"?>
<!-- Generator: Adobe Illustrator 19.0.0, SVG Export Plug-In . SVG Version: 6.00 Build 0)  -->
<svg version="1.1" id="Capa_1" xmlns="http://www.w3.org/2000/svg" xmlns:xlink="http://www.w3.org/1999/xlink" x="0px" y="0px"
	 viewBox="0 0 512.001 512.001" style="enable-background:new 0 0 512.001 512.001;" xml:space="preserve">
<g>
	<g transform="translate(1 1)">
		<g>
			<path style="fill:#A4C2F7;" d="M163.866,293.742c-5.044,2.309-10.689,2.966-16.129,1.877l-12.202-2.475
				c6.787-2.017,13.966-2.339,20.907-0.939L163.866,293.742z"/>
			<path style="fill:#A4C2F7;" d="M502.468,267.459v35.328c0.013,12.243-5.24,23.9-14.421,32l-38.571,34.133
				c-3.356,3.059-3.802,8.183-1.025,11.776l7.767,9.899c4.473,5.65,5.693,13.217,3.222,19.986
				c-2.471,6.769-8.28,11.77-15.341,13.209h-0.085c-5.722,1.164-11.67-0.137-16.384-3.584l-0.598-0.427
				c4.407-3.351,7.273-8.341,7.948-13.836c0.675-5.495-0.898-11.03-4.363-15.348l-7.767-9.899
				c-2.777-3.593-2.332-8.716,1.025-11.776l38.571-34.133c9.181-8.1,14.435-19.757,14.421-32v-35.328
				c0.021-8.339-2.413-16.501-6.998-23.467l-20.223-30.635c-3.943-5.977-3.739-13.779,0.511-19.541l18.091-24.576
				c1.819-2.45,2.191-5.685,0.976-8.485s-3.832-4.737-6.864-5.083l-11.692-1.451l4.437-1.024c2.923-0.762,5.969-0.936,8.96-0.512
				l23.893,2.987c3.032,0.345,5.649,2.283,6.864,5.083c1.215,2.8,0.843,6.035-0.976,8.485l-18.091,24.576
				c-4.25,5.762-4.455,13.564-0.512,19.541l20.223,30.635C500.055,250.959,502.489,259.12,502.468,267.459L502.468,267.459z"/>
		</g>
		<g>
			<path style="fill:#FFFFFF;" d="M154.137,296.046c-1.037,0.426-2.036,0.94-2.985,1.536l-27.819,16.896l-46.251,26.88
				c-7.318,4.206-10.442,13.143-7.339,20.992l3.755,9.557c1.866,4.797,1.468,10.18-1.082,14.651s-6.981,7.553-12.06,8.389
				l-12.885,2.219c-9.278,1.518-15.577,10.26-14.08,19.541l3.327,20.224c1.343,8.282,8.506,14.36,16.897,14.336h-25.6
				c-8.39,0.024-15.554-6.054-16.897-14.336l-3.327-20.224c-1.497-9.281,4.801-18.023,14.079-19.541l12.885-2.219
				c5.079-0.836,9.509-3.918,12.06-8.389c2.55-4.471,2.948-9.854,1.082-14.651l-3.754-9.557c-3.103-7.849,0.021-16.786,7.339-20.992
				l46.251-26.88l27.819-16.896c3.146-1.858,6.496-3.347,9.984-4.437l12.202,2.475C149.84,296.058,151.994,296.202,154.137,296.046z
				"/>
			<path style="fill:#FFFFFF;" d="M177.263,240.665l3.328,7.765c-3.01,3.602-7.354,5.827-12.036,6.165
				c-4.682,0.338-9.3-1.24-12.796-4.373l-0.768-1.792l-3.328-7.765c-2.156-2.052-4.799-3.52-7.68-4.267
				c-6.065-1.605-10.907-6.167-12.87-12.125c-1.963-5.958-0.781-12.505,3.142-17.4l15.701-19.541
				c0.57-0.683,1.231-1.286,1.963-1.792l58.283-38.315l2.731-1.792c1.85-1.175,4.066-1.63,6.229-1.28l16.554,3.072l-58.198,38.315
				c-0.732,0.506-1.392,1.109-1.963,1.792l-15.701,19.541c-3.923,4.895-5.105,11.442-3.142,17.4
				c1.963,5.958,6.805,10.52,12.87,12.125C172.463,237.144,175.107,238.613,177.263,240.665L177.263,240.665z"/>
		</g>
		<g>
			<path style="fill:#E3E7F2;" d="M476.868,267.459v35.328c0.013,12.243-5.24,23.9-14.421,32l-38.571,34.133
				c-3.356,3.059-3.802,8.183-1.025,11.776l7.767,9.899c3.712,4.559,5.24,10.516,4.181,16.299
				c-0.859,5.125-3.636,9.732-7.767,12.885l-43.262-31.317c-1.41-0.993-2.893-1.878-4.437-2.645h-0.085
				c-4.005-1.885-8.373-2.875-12.8-2.901c-14.013,0.016-26.075,9.901-28.844,23.637l-1.621,8.107
				c-1.302,6.681-6.42,11.966-13.056,13.483l-42.07,9.472l-11.947,2.645c-4.72,1.088-9.681,0.127-13.653-2.645
				c-1.511-1.055-2.838-2.352-3.925-3.84l-7.339-9.984c-5.129-6.932-11.09-13.208-17.749-18.688v-0.085
				c-2.997-2.557-6.131-4.95-9.387-7.168l-3.158-2.133c-2.968-2.057-6.909-2.023-9.841,0.085c-2.932,2.108-4.219,5.833-3.214,9.302
				c0.212,0.683,0.498,1.342,0.853,1.963l4.608,7.936c0.871,1.281,1.318,2.803,1.279,4.352v2.048
				c0.025,0.782-0.09,1.563-0.341,2.304c-0.632,2.361-2.245,4.338-4.431,5.431c-2.186,1.093-4.736,1.197-7.004,0.286l-14.165-5.717
				l-44.203-17.92l-3.327-1.365c-6.902-2.799-14.677-2.489-21.333,0.853l-0.939,0.512l-16.896,8.533
				c-3.543,1.827-6.633,4.421-9.046,7.595l-16.554,22.443c-3.222,4.355-8.321,6.921-13.739,6.912h-2.219
				c-8.227-0.186-15.151-6.213-16.47-14.336l-3.327-20.224c-1.497-9.281,4.801-18.023,14.079-19.541l12.885-2.219
				c5.079-0.836,9.509-3.918,12.06-8.389s2.948-9.854,1.082-14.651l-3.754-9.557c-3.103-7.849,0.021-16.786,7.339-20.992
				l46.251-26.88l27.819-16.896c0.95-0.596,1.948-1.11,2.985-1.536c3.362-0.126,6.668-0.909,9.729-2.304l9.471,1.877
				c3.578,0.74,7.272,0.71,10.837-0.085c0.046-0.046,0.106-0.076,0.171-0.085c1.766-0.375,3.483-0.948,5.121-1.707
				c0.255-0.085,0.426-0.256,0.683-0.341l25.259-12.885c0.278-0.129,0.563-0.243,0.853-0.341l48.896-18.603
				c3.151-1.212,5.297-4.161,5.481-7.532c0.184-3.371-1.627-6.536-4.627-8.084l-28.673-14.507c-2.87-1.445-4.684-4.381-4.693-7.595
				v-16.213c-0.01-0.544-0.067-1.087-0.171-1.621c-0.448-2.535-2.019-4.731-4.273-5.974c-2.254-1.243-4.95-1.4-7.333-0.426
				l-13.398,6.059c-0.216,0.081-0.418,0.196-0.597,0.341c-8.47,4.049-14.914,11.387-17.835,20.309l-5.121,15.701
				c-0.619,2.354-1.756,4.541-3.327,6.4l-3.328-7.765c-2.156-2.052-4.799-3.52-7.68-4.267c-6.065-1.605-10.907-6.167-12.87-12.125
				c-1.963-5.958-0.781-12.505,3.142-17.4l15.701-19.541c0.57-0.683,1.231-1.286,1.963-1.792l58.197-38.315h0.085l65.707,12.203
				c1.33,0.256,2.585,0.81,3.67,1.621l26.453,17.323l8.704,5.717l16.896-5.717l16.725-5.632c6.998-2.304,13.996-4.352,21.248-5.973
				l55.467-12.544l11.692,1.451c1.076,0.16,2.115,0.506,3.071,1.024h0.085c2.167,1.176,3.714,3.238,4.238,5.647
				c0.524,2.409-0.026,4.927-1.507,6.897l-18.091,24.576c-4.25,5.762-4.455,13.564-0.511,19.541l20.223,30.635
				C474.455,250.959,476.889,259.12,476.868,267.459L476.868,267.459z"/>
			<path style="fill:#E3E7F2;" d="M24.601,178.276v51.652l8.533,8.609v8.609l-8.533,17.217v8.498l8.533,8.719l-8.533,17.217
				l12.877,6.495c2.607,1.316,5.709,1.196,8.207-0.318l35.619-21.56c1.945-1.181,3.343-3.084,3.888-5.294l7.676-30.975
				l-17.067-8.609l-8.533-17.217l8.533-17.217l-17.067-8.609l-6.588-19.94c-1.145-3.504-4.409-5.877-8.095-5.886H33.135
				C28.401,169.688,24.581,173.542,24.601,178.276z"/>
			<path style="fill:#E3E7F2;" d="M306.201,144.067h34.133v128c0,9.426-7.641,17.067-17.067,17.067l0,0
				c-9.426,0-17.067-7.641-17.067-17.067V144.067z"/>
		</g>
		<circle style="fill:#7FACFA;" cx="323.268" cy="109.934" r="51.2"/>
		<ellipse style="fill:#A4C2F7;" cx="310.468" cy="109.934" rx="38.4" ry="51.2"/>
	</g>
	<g>
		<path style="fill:#428DFF;" d="M324.268,170.667c-32.99,0-59.733-26.744-59.733-59.733s26.744-59.733,59.733-59.733
			s59.733,26.744,59.733,59.733C383.963,143.908,357.242,170.629,324.268,170.667L324.268,170.667z M324.268,68.267
			c-17.257,0-32.815,10.395-39.419,26.339c-6.604,15.943-2.954,34.295,9.249,46.498s30.554,15.853,46.498,9.249
			c15.943-6.604,26.339-22.162,26.339-39.419C366.907,87.381,347.821,68.295,324.268,68.267z"/>
		<path style="fill:#428DFF;" d="M307.201,119.467c-2.263,0.001-4.434-0.898-6.035-2.499c-1.6-1.6-2.499-3.771-2.499-6.035
			c0.015-14.132,11.468-25.585,25.6-25.6c4.713,0,8.533,3.821,8.533,8.533s-3.82,8.533-8.533,8.533
			c-4.711,0.005-8.529,3.822-8.533,8.533c0.001,2.263-0.898,4.434-2.499,6.035C311.635,118.569,309.465,119.468,307.201,119.467
			L307.201,119.467z"/>
		<path style="fill:#428DFF;" d="M324.268,298.667c-14.132-0.015-25.585-11.468-25.6-25.6V162.134
			c-0.001-2.263,0.898-4.434,2.499-6.035c1.6-1.6,3.771-2.499,6.035-2.499h34.133c2.263-0.001,4.434,0.898,6.035,2.499
			s2.499,3.771,2.499,6.035v110.933C349.852,287.199,338.4,298.652,324.268,298.667L324.268,298.667z M315.735,170.667v102.4
			c0,4.713,3.82,8.533,8.533,8.533s8.533-3.821,8.533-8.533v-102.4H315.735z"/>
		<path style="fill:#428DFF;" d="M56.385,460.801H28.993c-12.571,0.039-23.305-9.066-25.317-21.475l-3.325-20.233
			c-1.122-6.653,0.469-13.478,4.417-18.95c3.947-5.556,9.956-9.299,16.683-10.392l12.834-2.209c2.554-0.4,4.789-1.935,6.08-4.175
			c1.29-2.24,1.497-4.944,0.562-7.354l-3.75-9.529c-4.593-11.799,0.102-25.184,11.058-31.529l46.192-26.842l27.683-16.812
			c11.094-6.699,24.295-8.999,37-6.446l16.9,3.417c3.868,0.779,7.885,0.237,11.408-1.538l25.1-12.804
			c0.404-0.209,0.825-0.383,1.258-0.521c-0.058-0.017,0.25-0.154,0.708-0.3l48.625-18.496l-28.633-14.533
			c-5.735-2.904-9.359-8.776-9.383-15.204v-16.212l-13.125,5.812c-6.575,3.018-11.59,8.646-13.833,15.525l-5.125,15.7
			c-2.36,8.432-8.929,15.033-17.35,17.434c-8.614,2.584-17.952,0.479-24.625-5.55c-0.919-0.826-1.647-1.843-2.133-2.979
			l-3.292-7.667c-0.864-0.578-1.819-1.008-2.825-1.271c-8.851-2.34-15.92-8.995-18.79-17.688c-2.87-8.694-1.153-18.249,4.565-25.399
			l15.725-19.571c1.121-1.355,2.425-2.547,3.875-3.541l61.075-40.137c3.63-2.337,7.995-3.254,12.258-2.575l82.567,15.308
			c2.616,0.496,5.085,1.583,7.217,3.179c3.737,2.833,4.487,8.151,1.679,11.907c-2.808,3.756-8.121,4.542-11.895,1.759
			l-82.475-15.338l-61,40.12l-15.7,19.55c-2.137,2.649-2.767,6.209-1.667,9.429c1.032,3.212,3.646,5.665,6.917,6.492
			c4.283,1.12,8.211,3.309,11.417,6.363c0.826,0.792,1.484,1.743,1.933,2.796l3.233,7.525c2.127,1.315,4.717,1.65,7.108,0.921
			c2.855-0.81,5.072-3.065,5.833-5.933l5.258-16.133c3.767-11.372,12.062-20.683,22.925-25.733l13.492-6.1
			c5.295-2.267,11.375-1.715,16.176,1.467c4.801,3.183,7.676,8.569,7.649,14.329v16.212l28.683,14.487
			c6.014,2.985,9.673,9.263,9.308,15.967c-0.267,6.782-4.542,12.755-10.875,15.196l-49,18.637l-0.175,0.066l-0.15,0.067
			l-24.942,12.721c-6.953,3.451-14.856,4.493-22.467,2.963l-16.809-3.395c-8.517-1.666-17.35-0.126-24.8,4.325l-27.8,16.879
			l-46.392,26.959c-3.656,2.107-5.222,6.571-3.683,10.5l3.758,9.542c2.808,7.193,2.22,15.27-1.6,21.981
			c-3.82,6.711-10.465,11.34-18.084,12.598l-12.842,2.213c-2.273,0.357-4.306,1.614-5.642,3.488
			c-1.302,1.798-1.831,4.043-1.467,6.233l3.325,20.25c0.681,4.152,4.276,7.196,8.483,7.184h27.392
			c2.724,0.005,5.286-1.289,6.9-3.483l16.525-22.4c3.198-4.234,7.308-7.695,12.025-10.125l17.867-9.058
			c8.869-4.49,19.253-4.903,28.45-1.129l61.65,24.979l0.033-2.163l-4.733-8.004c-4.156-6.772-2.949-15.537,2.883-20.933
			c5.798-5.643,14.778-6.395,21.433-1.796l3.2,2.163c11.239,7.588,21.112,17.024,29.2,27.908l7.375,10.029
			c2.022,2.736,5.48,4.005,8.792,3.225l54.067-12.129c3.326-0.77,5.89-3.421,6.55-6.771l1.625-8.158
			c3.519-17.756,19.115-30.538,37.217-30.5c7.979,0.026,15.756,2.516,22.267,7.129l43.917,31.779
			c2.764,2.043,6.264,2.821,9.633,2.142c0.167-0.033,0.325-0.062,0.483-0.083c4.026-0.931,7.301-3.847,8.692-7.737
			c1.499-3.96,0.778-8.418-1.892-11.704l-7.808-9.941c-5.508-7.058-4.693-17.158,1.875-23.242l38.775-34.325
			c7.354-6.476,11.563-15.806,11.549-25.604v-35.325c0.017-6.669-1.928-13.195-5.592-18.767l-20.225-30.629
			c-5.907-8.982-5.588-20.695,0.8-29.342l18.058-24.529l-23.967-3.029c-1.927-0.282-3.89-0.176-5.775,0.313l-60.15,13.621
			c-6.325,1.417-12.825,3.242-20.467,5.754l-33.567,11.329c-2.888,0.974-6.076,0.332-8.363-1.682
			c-2.287-2.014-3.326-5.096-2.725-8.083c0.601-2.988,2.75-5.428,5.638-6.402l33.625-11.35c7.263-2.441,14.645-4.516,22.117-6.217
			l59.883-13.558c3.945-0.998,8.047-1.213,12.075-0.633l23.717,2.962c6.09,0.729,11.322,4.667,13.708,10.317
			c2.388,5.558,1.615,11.969-2.025,16.8l-18.067,24.55c-2.136,2.885-2.239,6.798-0.258,9.792l20.217,30.621
			c5.502,8.36,8.427,18.154,8.409,28.162v35.325c0.012,14.696-6.299,28.687-17.325,38.404l-38.542,34.116l7.8,10.013
			c6.299,7.979,8.007,18.654,4.513,28.2c-3.495,9.546-11.692,16.595-21.654,18.62c-0.183,0.038-0.367,0.067-0.558,0.096
			c-7.928,1.473-16.112-0.387-22.625-5.141l-43.85-31.729c-3.605-2.542-7.906-3.912-12.317-3.925
			c-9.944-0.039-18.524,6.966-20.475,16.717l-1.625,8.158c-1.955,9.974-9.6,17.862-19.508,20.129l-54.067,12.125
			c-9.94,2.314-20.301-1.526-26.333-9.758l-7.333-9.979c-6.936-9.324-15.397-17.41-25.025-23.917l-3.167-2.137l4.567,7.929
			c1.65,2.572,2.494,5.578,2.425,8.633v2.05c0.007,5.75-2.865,11.121-7.65,14.308c-4.708,3.169-10.691,3.767-15.933,1.592
			l-61.633-24.971c-4.635-1.863-9.846-1.654-14.317,0.575l-17.783,9.021c-2.388,1.244-4.473,2.998-6.108,5.137l-16.483,22.355
			C72.172,456.97,64.516,460.826,56.385,460.801z"/>
		<path style="fill:#428DFF;" d="M42.301,315.746c-2.665-0.001-5.291-0.63-7.667-1.837l-12.875-6.496
			c-4.189-2.108-5.887-7.205-3.8-11.404l5.842-11.792l-4.3-4.392c-1.559-1.595-2.433-3.736-2.433-5.967v-8.496
			c-0.002-1.316,0.303-2.615,0.892-3.792l7.642-15.425v-3.096l-6.059-6.121c-1.585-1.597-2.474-3.755-2.475-6.004v-51.65
			c-0.008-9.441,7.625-17.109,17.067-17.142h10.917c7.374-0.001,13.911,4.741,16.2,11.75l5.475,16.579l13.917,7.017
			c4.188,2.111,5.886,7.207,3.8,11.408l-6.65,13.429l5.391,10.883l14.525,7.325c3.557,1.793,5.4,5.809,4.442,9.675l-7.675,30.975
			c-1.079,4.406-3.871,8.199-7.758,10.538l-35.616,21.562C48.45,314.89,45.405,315.745,42.301,315.746L42.301,315.746z
			 M37.01,295.996l5.308,2.679l35.567-21.563l6.059-24.413l-10.984-5.542c-1.649-0.834-2.985-2.179-3.808-3.833l-8.533-17.221
			c-1.181-2.388-1.178-5.19,0.009-7.575l4.767-9.625l-9.5-4.792c-2.017-1.019-3.548-2.796-4.258-4.942l-6.592-19.937l-10.909-0.033
			v48.212l6.059,6.121c1.585,1.597,2.474,3.755,2.475,6.004v8.608c0.003,1.315-0.302,2.612-0.892,3.788l-7.642,15.429v3.017
			l6.1,6.233c2.537,2.592,3.155,6.506,1.542,9.754L37.01,295.996z"/>
	</g>
</g>
<g>
</g>
<g>
</g>
<g>
</g>
<g>
</g>
<g>
</g>
<g>
</g>
<g>
</g>
<g>
</g>
<g>
</g>
<g>
</g>
<g>
</g>
<g>
</g>
<g>
</g>
<g>
</g>
<g>
</g>
</svg>
