<?xml version="1.0" encoding="iso-8859-1"?>
<!-- Generator: Adobe Illustrator 19.0.0, SVG Export Plug-In . SVG Version: 6.00 Build 0)  -->
<svg version="1.1" id="Capa_1" xmlns="http://www.w3.org/2000/svg" xmlns:xlink="http://www.w3.org/1999/xlink" x="0px" y="0px"
	 viewBox="0 0 512.001 512.001" style="enable-background:new 0 0 512.001 512.001;" xml:space="preserve">
<g>
	<g transform="translate(1 1)">
		<path style="fill:#E3E7F2;" d="M357.391,138.64L357.391,138.64c-0.237,7.636,5.752,14.022,13.387,14.275h5.384
			c3.757,0.022,7.336,1.603,9.882,4.365l0,0c2.649,2.868,4.112,6.634,4.093,10.538v11.287c0.145,4.669-3.518,8.575-8.187,8.73h-2.62
			c-7.844,0.26-13.998,6.821-13.754,14.666v0.072c-0.134,6.55,4.134,12.378,10.418,14.228l13.335,3.555
			c5.634,1.472,11.619-0.296,15.549-4.592l18.16-19.365c1.824-1.975,4.524-2.89,7.173-2.432c2.649,0.458,4.884,2.228,5.939,4.701
			l0.859,4.246c0.403,2.575,2.021,4.799,4.347,5.974c2.326,1.175,5.076,1.158,7.388-0.045l13.622-7.44
			c3.207-1.779,5.752-4.548,7.255-7.893l8.328-18.228c1.277-2.939,4.156-4.859,7.36-4.907h4.863
			c3.864-0.088,7.156-2.829,7.942-6.612l4.093-17.459c0.679-2.524,0.175-5.22-1.369-7.329c-1.544-2.109-3.962-3.403-6.573-3.518
			h-18.87c-2.201-0.013-4.297-0.939-5.789-2.557l-19.129-20.398c-1.838-2.005-4.58-2.919-7.253-2.416l-74.841,14.51
			C361.838,126.055,357.236,131.936,357.391,138.64z"/>
		<g>
			<path style="fill:#A4C2F7;" d="M203.023,445.731l-9.216,17.92c-1.085,2.107-2.988,3.675-5.264,4.336
				c-2.275,0.662-4.723,0.359-6.768-0.838l-49.493-28.843c-1.235-0.485-2.343-1.244-3.243-2.219l31.403,18.261
				c2.045,1.196,4.493,1.499,6.768,0.838c2.275-0.662,4.179-2.23,5.264-4.336l9.216-17.92c-0.018-3.256-1.865-6.226-4.779-7.68
				l-12.459-7.168c-2.93-1.48-4.777-4.483-4.779-7.765V399.48c1.619,1.898,3.99,2.99,6.485,2.987h6.144
				c4.799,0.02,8.684,3.905,8.704,8.704v11.947c0.001,3.282,1.849,6.285,4.779,7.765l12.459,7.168
				C201.158,439.505,203.005,442.475,203.023,445.731L203.023,445.731z"/>
			<path style="fill:#A4C2F7;" d="M322.234,268.835l-15.701,10.667c-5.485,3.724-8.367,10.249-7.424,16.811l0.853,5.803
				c1.492,2.247,1.846,5.062,0.959,7.608c-0.888,2.546-2.916,4.531-5.481,5.363l-34.987,11.691c-3.904,1.34-7.222,3.994-9.387,7.509
				l-17.579,29.44c-3.147,5.192-8.777,8.363-14.848,8.363h-37.205c-7.934,0.014-14.835,5.436-16.725,13.141l-2.731,10.752
				c-0.098,0.362-0.155,0.734-0.171,1.109c-1.586-2.01-4.011-3.175-6.571-3.157h-6.144c-2.669,0.003-5.192-1.221-6.841-3.32
				c-1.649-2.099-2.242-4.84-1.607-7.432l2.731-10.752c1.89-7.705,8.792-13.128,16.725-13.141h37.205
				c6.071,0,11.701-3.171,14.848-8.363l17.579-29.44c2.165-3.515,5.482-6.169,9.387-7.509l34.987-11.691
				c2.565-0.832,4.593-2.816,5.481-5.363c0.888-2.546,0.533-5.362-0.959-7.608l-0.853-5.803c-0.943-6.562,1.939-13.087,7.424-16.811
				l15.701-10.667c4.585-2.299,7.912-6.516,9.082-11.51c1.17-4.994,0.063-10.249-3.023-14.346l-3.925-5.205h3.157
				c5.441-0.01,10.567,2.553,13.824,6.912l8.277,11.093c3.086,4.097,4.194,9.352,3.023,14.346
				C330.146,262.319,326.819,266.536,322.234,268.835z"/>
		</g>
		<g>
			<path style="fill:#FFFFFF;" d="M181.775,453.667l-0.768,1.451c-1.085,2.107-2.988,3.675-5.264,4.336
				c-2.275,0.662-4.723,0.359-6.768-0.838l-31.403-18.261c-0.578-0.61-1.067-1.3-1.451-2.048l-32.427-64.939
				c-0.361-0.855-0.916-1.615-1.621-2.219l-28.075-28.587c-5.789-5.86-6.679-14.976-2.133-21.845l20.992-31.573
				c3.669-5.461,9.643-7.253,8.533-13.739l-4.267-25.6C96.25,244,92.396,239.077,86.97,236.835l9.813-1.109l2.731-0.341
				c9.155-1.032,17.501,5.322,18.944,14.421l4.267,25.6c1.102,6.513-0.334,13.201-4.011,18.688l-20.992,31.573
				c-4.546,6.87-3.656,15.985,2.133,21.845l23.552,23.637c0.705,0.604,1.26,1.363,1.621,2.219l32.427,64.939
				c0.384,0.748,0.872,1.438,1.451,2.048L181.775,453.667z"/>
			<path style="fill:#FFFFFF;" d="M117.86,184.696l-26.795,5.376c-0.806,0.17-1.582,0.458-2.304,0.853L40.207,216.44
				c-6.088,3.172-8.724,10.484-6.059,16.811h0.085c1.141,2.737,3.19,4.997,5.803,6.4l-13.653,1.536
				c-5.755,0.629-11.239-2.599-13.483-7.936h-0.085c-2.665-6.326-0.029-13.639,6.059-16.811l48.555-25.515
				c0.722-0.396,1.498-0.683,2.304-0.853l36.181-7.253c3.756-0.768,7.661-0.257,11.093,1.451L117.86,184.696z"/>
		</g>
		<g>
			<path style="fill:#E3E7F2;" d="M305.167,256.035l-15.701,10.667c-5.485,3.724-8.366,10.249-7.424,16.811l0.853,5.803
				c1.492,2.247,1.846,5.062,0.959,7.608c-0.888,2.546-2.916,4.531-5.481,5.363l-34.987,11.691c-3.904,1.34-7.222,3.994-9.387,7.509
				l-17.579,29.44c-3.147,5.192-8.777,8.363-14.848,8.363h-37.205c-7.934,0.014-14.835,5.436-16.725,13.141l-2.731,10.752
				c-0.635,2.593-0.042,5.333,1.607,7.432c1.649,2.099,4.172,3.323,6.841,3.32h6.144c2.56-0.018,4.985,1.147,6.571,3.157
				c-0.314,2.425,0.468,4.865,2.133,6.656v10.837c0.001,3.282,1.849,6.285,4.779,7.765l12.459,7.168
				c2.913,1.454,4.761,4.424,4.779,7.68l-8.448,16.469l-22.869-13.312c-0.578-0.61-1.067-1.3-1.451-2.048l-32.427-64.939
				c-0.361-0.855-0.916-1.615-1.621-2.219l-23.552-23.637c-5.789-5.86-6.679-14.976-2.133-21.845l20.992-31.573
				c3.677-5.487,5.112-12.175,4.011-18.688l-4.267-25.6c-1.443-9.099-9.789-15.453-18.944-14.421l-2.731,0.341l-9.813,1.109
				c-2.736-1.298-5.782-1.801-8.789-1.451l-2.731,0.341l-35.413,3.925c-2.612-1.403-4.661-3.663-5.803-6.4h-0.085
				c-2.665-6.326-0.029-13.639,6.059-16.811l48.555-25.515c0.722-0.396,1.498-0.683,2.304-0.853l26.795-5.376l20.736,10.411
				c0.341,0.171,0.768,0.341,1.195,0.512l13.141-4.011l20.992-6.4c4.684-2.154,10.099-2.028,14.677,0.341l2.133,1.024l22.187,11.093
				c1.631,0.831,3.481,1.13,5.291,0.853l13.227-2.219l3.84-0.683l1.707-0.256c6.185-1.073,12.464,1.304,16.388,6.204
				c3.924,4.9,4.87,11.547,2.471,17.348l-4.181,10.411c-1.064,2.65-0.744,5.655,0.853,8.021l0.171,0.256l7.765,11.776
				c1.564,2.338,4.161,3.776,6.973,3.861c2.812,0.085,5.491-1.195,7.193-3.434l3.925-5.291l9.472-12.629
				c3.257-4.359,8.383-6.922,13.824-6.912h5.461l3.755,4.949l0.171,0.256c3.086,4.097,4.194,9.352,3.023,14.346
				C313.079,249.519,309.752,253.736,305.167,256.035z"/>
			<path style="fill:#E3E7F2;" d="M163.94,398.371v1.109c-1.665-1.791-2.447-4.231-2.133-6.656
				C163.201,394.333,163.964,396.317,163.94,398.371L163.94,398.371z"/>
			<path style="fill:#E3E7F2;" d="M135.524,135.544h34.133v119.467c0,9.426-7.641,17.067-17.067,17.067l0,0
				c-9.426,0-17.067-7.641-17.067-17.067V135.544z"/>
		</g>
		<circle style="fill:#7FACFA;" cx="152.591" cy="92.878" r="51.2"/>
		<ellipse style="fill:#A4C2F7;" cx="139.791" cy="92.878" rx="38.4" ry="51.2"/>
	</g>
	<g>
		<circle style="fill:#428DFF;" cx="69.964" cy="332.811" r="8.533"/>
		<path style="fill:#428DFF;" d="M153.591,153.611c-32.99,0-59.733-26.744-59.733-59.733s26.744-59.733,59.733-59.733
			s59.733,26.744,59.733,59.733C213.287,126.852,186.565,153.574,153.591,153.611L153.591,153.611z M153.591,51.211
			c-23.564,0-42.667,19.103-42.667,42.667s19.103,42.667,42.667,42.667s42.667-19.103,42.667-42.667
			C196.23,70.325,177.144,51.239,153.591,51.211z"/>
		<path style="fill:#428DFF;" d="M136.524,102.411c-4.713,0-8.533-3.821-8.533-8.533c0.015-14.132,11.468-25.585,25.6-25.6
			c4.713,0,8.533,3.821,8.533,8.533s-3.821,8.533-8.533,8.533c-4.71,0.006-8.527,3.823-8.533,8.533
			C145.058,98.591,141.237,102.411,136.524,102.411z"/>
		<path style="fill:#428DFF;" d="M153.591,281.611c-14.132-0.015-25.585-11.468-25.6-25.6V145.078c0-4.713,3.821-8.533,8.533-8.533
			h34.133c4.713,0,8.533,3.82,8.533,8.533v110.933C179.176,270.143,167.723,281.596,153.591,281.611L153.591,281.611z
			 M145.058,153.611v102.4c0,4.713,3.82,8.533,8.533,8.533s8.533-3.82,8.533-8.533v-102.4H145.058z"/>
		<path style="fill:#428DFF;" d="M394.266,230.407c-2.071,0-4.133-0.27-6.133-0.804l-13.333-3.554
			c-10.023-2.843-16.892-12.057-16.754-22.475c-0.263-12.577,9.711-22.991,22.288-23.271h2.617l-0.346-11.483
			c0.017-1.733-0.618-3.409-1.779-4.696c-0.933-1.046-2.261-1.653-3.663-1.675h-5.383c-11.478-0.493-20.814-9.413-21.83-20.856
			c-1.016-11.443,6.602-21.869,17.813-24.377l74.837-14.508c5.553-1.07,11.265,0.805,15.104,4.958l19.129,20.396l18.433-0.137
			c5.055,0.009,9.826,2.341,12.937,6.325c3.351,4.227,4.572,9.759,3.313,15.004l-4.092,17.454c-1.675,7.652-8.417,13.129-16.25,13.2
			h-4.863l-7.925,18.15c-2.279,5.015-6.111,9.163-10.929,11.833l-13.621,7.442c-4.541,2.502-10.006,2.681-14.7,0.479
			c-4.914-2.34-8.432-6.865-9.487-12.204l-0.288-1.408l-17.258,18.404C407.491,227.557,401.035,230.382,394.266,230.407
			L394.266,230.407z M380.333,197.369c-3.122,0.274-5.447,3.003-5.221,6.129c-0.137,2.703,1.527,5.172,4.083,6.059l13.333,3.554
			c2.598,0.659,5.346-0.183,7.129-2.183l18.158-19.367c3.711-3.999,9.167-5.892,14.558-5.05c5.493,0.906,10.178,4.48,12.504,9.537
			c0.287,0.613,0.5,1.257,0.633,1.921l0.863,4.246l12.9-7.3c1.588-0.898,2.846-2.283,3.587-3.95l8.325-18.229
			c2.678-5.968,8.584-9.832,15.125-9.896h4.863l3.725-17.483l-18.504-0.367c-4.559-0.022-8.907-1.925-12.017-5.258l-19.125-20.392
			l-74.246,14.633c-2.517,0.704-4.212,3.056-4.083,5.667c-0.22,2.918,1.94,5.473,4.854,5.742h5.383
			c6.113,0.037,11.94,2.592,16.108,7.063c4.144,4.442,6.434,10.3,6.4,16.375v11.288c0.136,9.379-7.342,17.1-16.721,17.263
			L380.333,197.369z"/>
		<path style="fill:#428DFF;" d="M87.024,310.028c-3.141-0.005-6.026-1.735-7.509-4.504s-1.326-6.129,0.409-8.747l7.079-10.667
			c2.465-3.681,3.434-8.163,2.708-12.533l-4.271-25.633c-0.685-4.634-4.926-7.887-9.579-7.346l-51.796,5.8
			c-9.014,0.944-17.672-3.787-21.746-11.883c-0.249-0.392-0.464-0.804-0.642-1.233c-4.346-10.437,0.009-22.465,10.029-27.7
			l48.483-25.475c1.387-0.754,2.876-1.302,4.421-1.629l36.354-7.292c5.621-1.138,11.461-0.368,16.596,2.188l21.596,10.842
			c4.434,1.758,6.657,6.732,5.008,11.208c-0.767,2.098-2.35,3.797-4.389,4.709c-2.039,0.913-4.36,0.962-6.436,0.137l3.183-7.917
			l-3.237,7.896c-0.638-0.254-1.267-0.521-1.775-0.775l-21.6-10.846c-1.722-0.855-3.681-1.106-5.563-0.713l-36.204,7.258
			l-48.567,25.555c-1.959,0.981-2.954,3.207-2.379,5.321c0.117,0.221,0.225,0.446,0.321,0.679c0.796,1.844,2.71,2.944,4.704,2.704
			l51.738-5.792c13.691-1.551,26.175,7.953,28.325,21.563l4.254,25.533c1.44,8.662-0.471,17.547-5.346,24.85l-7.054,10.625
			C92.561,308.599,89.887,310.033,87.024,310.028L87.024,310.028z"/>
		<path style="fill:#428DFF;" d="M191.433,477.857c-3.046,0-6.037-0.802-8.675-2.325l-48.992-28.554
			c-3.657-1.612-6.649-4.432-8.475-7.987l-32.496-65.075l-0.004-0.009L80.999,362.14c-2.176-2.151-3.033-5.303-2.247-8.26
			c0.786-2.957,3.096-5.267,6.053-6.053c2.957-0.786,6.109,0.071,8.26,2.247l11.775,11.775c1.54,1.407,2.741,3.145,3.512,5.083
			l32.133,64.296c0.471,0.199,0.926,0.435,1.358,0.708l49.492,28.842l7.579-14.529l-12.121-6.971
			c-5.606-2.972-9.095-8.813-9.054-15.158v-11.95l-6.317-0.171c-5.297,0.004-10.301-2.43-13.567-6.601
			c-3.266-4.17-4.431-9.612-3.158-14.754l2.737-10.783c2.819-11.509,13.147-19.595,24.996-19.571h37.208
			c3.086-0.011,5.944-1.623,7.55-4.258l17.55-29.388c3.198-5.233,8.117-9.191,13.913-11.196l35.083-11.721
			c-0.669-1.108-1.085-2.35-1.217-3.638l-0.854-5.804c-1.398-9.812,2.914-19.564,11.113-25.134l15.659-10.642
			c0.321-0.218,0.657-0.414,1.004-0.588c2.309-1.134,3.982-3.25,4.554-5.758c0.609-2.546,0.052-5.232-1.521-7.325l-8.3-11.117
			c-1.65-2.195-4.237-3.485-6.984-3.483h-8.617c-2.743-0.003-5.328,1.284-6.979,3.475l-13.412,17.933
			c-3.307,4.484-8.611,7.05-14.179,6.858c-5.596-0.149-10.774-2.994-13.9-7.637l-7.975-12.087
			c-3.114-4.637-3.758-10.506-1.725-15.708l4.258-10.604c1.225-2.955,0.722-6.344-1.308-8.817c-1.953-2.489-5.119-3.697-8.233-3.142
			l-18.758,3.158c-3.655,0.558-7.393-0.044-10.687-1.721l-24.142-12.029c-2.282-1.203-4.993-1.282-7.342-0.212
			c-2.775,1.262-6.012,0.948-8.493-0.823c-2.481-1.772-3.827-4.732-3.533-7.767c0.294-3.034,2.185-5.681,4.959-6.943
			c7.066-3.247,15.236-3.05,22.138,0.533l24.196,12.054l18.846-3.083c9.216-1.53,18.54,2.035,24.386,9.322
			c5.846,7.287,7.302,17.163,3.81,25.828l-4.187,10.412l7.996,12.171l13.608-17.9c4.879-6.501,12.53-10.33,20.659-10.338h8.617
			c8.134,0.009,15.79,3.843,20.671,10.35l8.271,11.083c4.533,6.037,6.197,13.756,4.556,21.124
			c-1.642,7.369-6.426,13.65-13.093,17.192l-15.267,10.371c-2.789,1.892-4.254,5.21-3.775,8.546l0.617,4.179
			c2.198,4.465,2.352,9.664,0.421,14.251c-1.931,4.587-5.757,8.11-10.487,9.658l-34.946,11.675
			c-1.997,0.697-3.693,2.059-4.804,3.858l-17.542,29.375c-4.712,7.744-13.107,12.485-22.171,12.521h-37.208
			c-4.007-0.003-7.494,2.739-8.438,6.633l-2.746,10.825l6.321,0.117c9.515,0.011,17.226,7.722,17.237,17.237v11.95l12.962,7.537
			c5.575,2.962,9.058,8.762,9.054,15.075c0,1.358-0.325,2.697-0.946,3.904l-9.217,17.921
			C203.728,474.265,197.85,477.855,191.433,477.857L191.433,477.857z M92.999,374.115c0.056,0.064,0.115,0.124,0.179,0.179
			L92.999,374.115z"/>
	</g>
</g>
<g>
</g>
<g>
</g>
<g>
</g>
<g>
</g>
<g>
</g>
<g>
</g>
<g>
</g>
<g>
</g>
<g>
</g>
<g>
</g>
<g>
</g>
<g>
</g>
<g>
</g>
<g>
</g>
<g>
</g>
</svg>
