<?xml version="1.0" encoding="iso-8859-1"?>
<!-- Generator: Adobe Illustrator 19.0.0, SVG Export Plug-In . SVG Version: 6.00 Build 0)  -->
<svg version="1.1" id="Capa_1" xmlns="http://www.w3.org/2000/svg" xmlns:xlink="http://www.w3.org/1999/xlink" x="0px" y="0px"
	 viewBox="0 0 512 512" style="enable-background:new 0 0 512 512;" xml:space="preserve">
<g transform="translate(-1)">
	<g transform="translate(1 1)">
		<path style="fill:#FFFFFF;" d="M288.303,367.384v8.533c-0.022,3.306-1.065,6.525-2.987,9.216l-18.859,25.856
			c-3.56,4.887-5.768,10.627-6.4,16.64l-5.888,54.699c-0.617,5.519-3.19,10.635-7.253,14.421
			c-4.728,4.311-11.105,6.339-17.455,5.551c-6.35-0.788-12.038-4.312-15.569-9.647c-1.289-1.942-2.268-4.072-2.901-6.315
			l-22.187-75.947c-0.26-0.891-0.432-1.806-0.512-2.731l-17.067-158.379c-0.566-5.145-3.674-9.664-8.277-12.032l-20.907-10.837
			c-5.212-2.688-9.339-7.087-11.691-12.459l-25.771-59.733c-4.181-9.61-2.16-20.792,5.12-28.331l9.728-10.069
			c3.464-3.536,5.019-8.519,4.181-13.397l-4.267-26.709c-2.239-13.447,2.036-27.158,11.52-36.949l18.091-18.603
			c7.773-8.067,18.493-12.626,29.696-12.629h25.6c-11.203,0.003-21.923,4.562-29.696,12.629l-18.091,18.603
			c-9.484,9.792-13.759,23.503-11.52,36.949l4.267,26.709c0.838,4.878-0.718,9.862-4.181,13.397l-9.728,10.069
			c-7.28,7.539-9.301,18.721-5.12,28.331l25.771,59.733c2.351,5.372,6.479,9.771,11.691,12.459l20.907,10.837
			c4.603,2.368,7.711,6.887,8.277,12.032l17.067,158.379c0.08,0.925,0.252,1.84,0.512,2.731l15.36,52.48l6.827,23.467
			c0.46,2.625,1.263,5.179,2.389,7.595c2.969-1.411,5.657-3.348,7.936-5.717c4.063-3.786,6.636-8.902,7.253-14.421l5.888-54.699
			c0.632-6.013,2.84-11.753,6.4-16.64l18.859-25.856C287.237,373.909,288.28,370.691,288.303,367.384z"/>
		<path style="fill:#A4C2F7;" d="M408.025,153.197l-11.264,23.296c-5.744,11.843-10.042,24.335-12.8,37.205l-12.203,56.149
			c-1.07,5.243-4.836,9.529-9.899,11.264l-11.264,3.84c-4.924,1.749-8.641,5.851-9.899,10.923l-6.656,27.563
			c-0.242,1.066-0.614,2.098-1.109,3.072l-5.291,10.837c-1.936,4.001-5.518,6.961-9.813,8.107l-18.091,4.693
			c-6.783,1.769-11.496,7.923-11.435,14.933v2.304c-0.022,3.306-1.065,6.525-2.987,9.216l-18.859,25.856
			c-3.56,4.887-5.768,10.627-6.4,16.64l-5.888,54.699c-0.617,5.519-3.19,10.635-7.253,14.421c-2.279,2.369-4.967,4.306-7.936,5.717
			c-1.126-2.416-1.929-4.969-2.389-7.595l-6.827-23.467l4.693-43.776c0.632-6.013,2.84-11.753,6.4-16.64l18.859-25.856
			c1.921-2.691,2.965-5.91,2.987-9.216v-10.837c-0.061-7.01,4.651-13.164,11.435-14.933l18.091-4.693
			c4.295-1.146,7.878-4.105,9.813-8.107l5.291-10.837c0.495-0.974,0.868-2.006,1.109-3.072l6.656-27.563
			c1.257-5.071,4.975-9.174,9.899-10.923l11.264-3.84c5.062-1.735,8.828-6.021,9.899-11.264l12.203-56.149
			c2.759-12.87,7.056-25.362,12.8-37.205l11.264-23.296c1.896-3.829,2.129-8.27,0.643-12.276c-1.486-4.006-4.559-7.221-8.494-8.887
			l-49.493-20.395l0.171-0.683h0.085c1.905-0.012,3.793,0.366,5.547,1.109l69.291,28.501c4.339,1.758,7.596,5.457,8.789,9.984
			C410.104,145.727,409.767,149.732,408.025,153.197L408.025,153.197z"/>
		<g>
			<path style="fill:#E3E7F2;" d="M382.425,144.664l-11.264,23.296c-5.744,11.843-10.041,24.335-12.8,37.205l-12.203,56.149
				c-1.07,5.243-4.836,9.529-9.899,11.264l-11.264,3.84c-4.924,1.749-8.641,5.851-9.899,10.923l-6.656,27.563
				c-0.242,1.066-0.614,2.098-1.109,3.072l-5.291,10.837c-1.936,4.001-5.518,6.961-9.813,8.107l-18.091,4.693
				c-6.783,1.769-11.496,7.923-11.435,14.933v10.837c-0.022,3.306-1.065,6.525-2.987,9.216l-18.859,25.856
				c-3.56,4.887-5.768,10.627-6.4,16.64l4.523,83.371h-8.533l-16.043-92.075c-0.26-0.891-0.432-1.806-0.512-2.731l-17.067-158.379
				c-0.566-5.145-3.674-9.664-8.277-12.032l-20.907-10.837c-5.212-2.688-9.339-7.087-11.691-12.459l-25.771-59.733
				c-4.181-9.61-2.16-20.792,5.12-28.331l9.728-10.069c3.464-3.536,5.019-8.519,4.181-13.397l-4.267-26.709
				c-2.239-13.447,2.036-27.158,11.52-36.949l18.091-18.603c7.773-8.067,18.493-12.626,29.696-12.629h3.072
				c11.203,0.003,21.923,4.562,29.696,12.629l15.701,16.128l72.533,66.133l-0.171,0.683l49.493,20.395
				c3.935,1.666,7.008,4.881,8.494,8.887C384.554,136.394,384.322,140.835,382.425,144.664z"/>
			<path style="fill:#E3E7F2;" d="M281.647,101.4h34.133v119.467c0,9.426-7.641,17.067-17.067,17.067l0,0
				c-9.426,0-17.067-7.641-17.067-17.067V101.4z"/>
		</g>
		<circle style="fill:#7FACFA;" cx="298.713" cy="58.733" r="51.2"/>
		<ellipse style="fill:#A4C2F7;" cx="285.913" cy="58.733" rx="38.4" ry="51.2"/>
	</g>
	<g>
		<path style="fill:#428DFF;" d="M299.713,119.467c-32.99,0-59.733-26.744-59.733-59.733S266.723,0,299.713,0
			s59.733,26.744,59.733,59.733C359.41,92.708,332.688,119.43,299.713,119.467z M299.713,17.067
			c-23.564,0-42.667,19.103-42.667,42.667s19.103,42.667,42.667,42.667c23.564,0,42.667-19.103,42.667-42.667
			C342.352,36.181,323.266,17.094,299.713,17.067z"/>
		<path style="fill:#428DFF;" d="M282.647,68.267c-4.713,0-8.533-3.821-8.533-8.533c0.015-14.132,11.468-25.585,25.6-25.6
			c4.713,0,8.533,3.821,8.533,8.533s-3.821,8.533-8.533,8.533c-4.71,0.006-8.527,3.823-8.533,8.533
			C291.18,64.446,287.359,68.267,282.647,68.267z"/>
		<path style="fill:#428DFF;" d="M299.713,247.467c-14.132-0.015-25.585-11.468-25.6-25.6V110.933c0-4.713,3.82-8.533,8.533-8.533
			h34.133c4.713,0,8.533,3.821,8.533,8.533v110.933C325.298,235.999,313.845,247.451,299.713,247.467L299.713,247.467z
			 M291.18,119.467v102.4c0,4.713,3.821,8.533,8.533,8.533c4.713,0,8.533-3.821,8.533-8.533v-102.4H291.18z"/>
		<path style="fill:#428DFF;" d="M233.155,512c-13.66-0.092-25.622-9.184-29.367-22.321l-22.175-75.895
			c-0.421-1.424-0.696-2.887-0.821-4.367l-5.359-50.109c-0.502-4.685,2.89-8.89,7.575-9.392s8.89,2.89,9.392,7.575l5.375,50.263
			c0.029,0.394,0.094,0.785,0.196,1.167l22.212,76.025c1.62,5.844,6.907,9.915,12.971,9.987c3.332,0.005,6.546-1.238,9.008-3.483
			c2.545-2.402,4.151-5.633,4.529-9.112l5.883-54.621c0.802-7.513,3.565-14.683,8.013-20.792l18.833-25.821
			c0.863-1.227,1.332-2.687,1.346-4.187v-10.837c-0.061-10.916,7.304-20.478,17.875-23.204l18.046-4.679
			c1.886-0.517,3.452-1.832,4.287-3.6l5.283-10.829c0.234-0.447,0.405-0.923,0.508-1.417l6.633-27.479
			c1.926-7.892,7.708-14.276,15.371-16.971l11.333-3.867c2.214-0.756,3.855-2.637,4.304-4.933l12.217-56.213
			c2.9-13.527,7.416-26.656,13.45-39.104l11.267-23.3c0.884-1.796,0.981-3.88,0.267-5.75c-0.634-1.717-1.955-3.093-3.646-3.796
			l-69.325-28.513c-0.726-0.314-1.509-0.472-2.3-0.467c-4.713,0.024-8.553-3.777-8.577-8.49c-0.024-4.713,3.777-8.553,8.49-8.577
			h0.088c3.059-0.012,6.089,0.599,8.904,1.796l69.179,28.454c6.054,2.496,10.807,7.383,13.133,13.504
			c2.39,6.276,2.078,13.262-0.862,19.3l-11.246,23.258c-5.444,11.225-9.518,23.064-12.133,35.263l-12.217,56.196
			c-1.725,8.162-7.608,14.819-15.496,17.533l-11.25,3.833c-2.19,0.8-3.833,2.645-4.375,4.913l-6.638,27.5
			c-0.416,1.795-1.061,3.529-1.921,5.158l-5.104,10.487c-3.022,6.247-8.626,10.86-15.337,12.625l-18.096,4.692
			c-3.016,0.802-5.097,3.555-5.046,6.675v10.837c-0.029,5.072-1.619,10.013-4.554,14.15l-18.925,25.95
			c-2.696,3.684-4.359,8.021-4.817,12.563l-5.887,54.663c-0.825,7.556-4.34,14.563-9.904,19.742
			C248.13,509.142,240.781,512.004,233.155,512z"/>
		<path style="fill:#428DFF;" d="M176.484,298.667c-4.358-0.003-8.013-3.291-8.475-7.625l-4.267-39.85
			c-0.252-2.258-1.605-4.245-3.613-5.308l-21.017-10.896c-6.929-3.582-12.422-9.431-15.562-16.571L97.746,158.6
			c-5.617-12.778-2.906-27.688,6.85-37.671l9.696-10.037c1.564-1.584,2.274-3.821,1.908-6.017l-4.284-26.813
			c-2.64-16.107,2.49-32.515,13.834-44.25l18.088-18.6C153.197,5.463,166.137-0.033,179.651,0h28.67
			c13.52-0.032,26.465,5.469,35.825,15.225l15.688,16.117c3.263,3.382,3.177,8.765-0.19,12.042s-8.751,3.215-12.043-0.138
			l-15.7-16.133c-6.156-6.431-14.677-10.061-23.579-10.046h-28.67c-8.897-0.016-17.412,3.609-23.567,10.033L137.98,45.717
			c-7.581,7.861-10.998,18.843-9.217,29.617l4.271,26.746c1.258,7.541-1.155,15.23-6.496,20.7l-9.7,10.042
			c-4.862,5.068-6.213,12.556-3.429,19.004l25.775,59.751c1.562,3.543,4.287,6.447,7.725,8.229l20.966,10.871
			c7.145,3.643,11.968,10.647,12.825,18.621l4.275,39.929c0.254,2.408-0.526,4.81-2.145,6.61
			C181.212,297.636,178.905,298.665,176.484,298.667z"/>
		<circle style="fill:#428DFF;" cx="180.247" cy="324.267" r="8.533"/>
	</g>
</g>
<g>
</g>
<g>
</g>
<g>
</g>
<g>
</g>
<g>
</g>
<g>
</g>
<g>
</g>
<g>
</g>
<g>
</g>
<g>
</g>
<g>
</g>
<g>
</g>
<g>
</g>
<g>
</g>
<g>
</g>
</svg>
