<svg width="1920" height="1080" viewBox="0 0 1920 1080" fill="none" xmlns="http://www.w3.org/2000/svg">
<rect width="1920" height="1080" fill="#E5E5E5"/>
<rect width="1920" height="1080" fill="#2D2E36"/>
<path d="M334.109 661.992C447.388 661.992 539.219 565.511 539.219 446.496C539.219 327.481 447.388 231 334.109 231C220.831 231 129 327.481 129 446.496C129 565.511 220.831 661.992 334.109 661.992Z" fill="#FC5A15"/>
<path d="M1691.59 1230.51C1683.43 1237.94 1674.86 1244.89 1665.9 1251.31C1644.64 1266.45 1621.67 1278.96 1597.47 1288.57C1496.92 1286.12 1349.1 1273.62 1162.52 1266.96C1148.6 1262.14 1134.37 1256.92 1119.81 1251.31C1100.56 1243.87 1080.75 1235.7 1060.39 1226.8C975.819 1189.78 888.992 1165.71 802.988 1151.34C784.507 1148.25 766.074 1145.6 747.689 1143.4C359.325 1096.35 1.18165 1234.59 -40.2964 1251.31H-44.2958L-18.7833 1201.25L415.317 349.483L516.835 613.527L549.233 697.812L638.527 573.68L684.634 509.589L894.604 753.457L953.951 620.683L1364.83 960.369L1387.74 979.304L1410.93 998.484L1418.32 1004.59L1637.98 1186.2L1691.59 1230.51Z" fill="#F2F2F2"/>
<path opacity="0.1" d="M376.613 521.026L418.542 427.903L476.599 563.503L426.606 465.479L376.613 521.026Z" fill="black"/>
<path opacity="0.1" d="M802.988 1151.34C784.507 1148.25 766.074 1145.6 747.689 1143.4L549.234 697.812L802.988 1151.34Z" fill="black"/>
<path opacity="0.1" d="M638.529 573.679L684.634 537.363L894.282 782.424L681.409 573.305L638.529 573.679Z" fill="black"/>
<path opacity="0.1" d="M894.599 753.451L1313.58 1159.82L1256.27 1173.51L894.599 753.451Z" fill="black"/>
</svg>
