<svg xmlns="http://www.w3.org/2000/svg" xmlns:xlink="http://www.w3.org/1999/xlink" width="1920" height="1080" viewBox="0 0 1920 1080">
  <defs>
    <clipPath id="clip-Web_1920_1">
      <rect width="1920" height="1080"/>
    </clipPath>
  </defs>
  <g id="Web_1920_1" data-name="Web 1920 – 1" clip-path="url(#clip-Web_1920_1)">
    <rect width="1920" height="1080" fill="#333"/>
    <g id="Rectangle_1" data-name="Rectangle 1" fill="rgba(255,255,255,0)" stroke="#707070" stroke-width="1">
      <rect width="1920" height="1081" stroke="none"/>
      <rect x="0.5" y="0.5" width="1919" height="1080" fill="none"/>
    </g>
    <g id="Ellipse_1" data-name="Ellipse 1" transform="translate(57 260)" fill="#de7011" stroke="#707070" stroke-width="1">
      <circle cx="165" cy="165" r="165" stroke="none"/>
      <circle cx="165" cy="165" r="164.5" fill="none"/>
    </g>
    <path id="Path_3" data-name="Path 3" d="M0,489.2s63.818,20.959,105.424,47.738,28.069,31.315,61,59.376,40.9,28.3,70.719,52.869S257.325,666.132,285.7,694.6s15.36,43.961,64.94,68.465,85.789,10.673,133.379,29.549,5.228,17.609,56.984,45.956S616.8,892.851,691.044,906s86.513,2.04,146.938-14.817,49.5-10.593,94.763-52.613,175-255.621,263.318-278.137-4.89,124.755,73.646,149.571,20.786,80.77,63.469,112.362,61.12,31.6,123.586,52.506,61.918,3.5,126.277,31.128,63.91,36.513,131.159,79.378,63.873,37.257,137.835,92.083,158.011,127.222,158.011,127.222H0Z" transform="translate(0 -122.291)" fill="#505050" stroke="#707070" stroke-width="1"/>
    <path id="Path_1" data-name="Path 1" d="M0,675.2s57.277,131.265,131.417,171.82,74.431,50.087,165.144,74.188,96.854,2.477,197.707,22.218,106.93,26.257,205.705,56.748,101.4,20.618,189.4,65.215,162.593,113.173,162.593,113.173H0Z" transform="translate(0 -97.857)" fill="#a3a3a3" stroke="#707070" stroke-width="1"/>
    <path id="Path_2" data-name="Path 2" d="M0,1024.948s47.3,13.361,88.186,35.2,30.138,33.479,75.347,52.16,48.939,6.529,105.489,22.564,63.106,24.465,120.714,41.578,60.724,16.231,109.718,26.875,48.806,15.7,86.26,15.7,28.691-5.056,63.557-15.7,38.422-9.762,75.907-26.875,31.86-12.5,74.032-41.578,47.874-47.243,94.657-74.724,28.912-18.7,92.476-35.2,101.332-26.294,161.78-30.807,23.708,32.543,80.014,12.755,98.468-47.454,145.211-91.909,11.711-28.586,41.76-85.911,39.064-89.816,78.434-143.391,39.4-53.184,79.046-70.912,38.022,16.79,79.535,0,39.706-59.2,86.515-67.159,50.763.79,100.72,35.308,48.534,66.313,99.11,102.764,56.971,43.039,103.2,43.039,40.18-1.25,81.705-43.039,84.4-124.117,84.4-124.117v696.151H0Z" transform="translate(4 -177.973)" fill="#d5d5d5" stroke="#707070" stroke-width="1"/>
  </g>
</svg>
